<?xml version="1.0" encoding="UTF-8" standalone="no"?>
<!-- Created with Inkscape (http://www.inkscape.org/) -->

<svg
   xmlns:dc="http://purl.org/dc/elements/1.1/"
   xmlns:cc="http://creativecommons.org/ns#"
   xmlns:rdf="http://www.w3.org/1999/02/22-rdf-syntax-ns#"
   xmlns:svg="http://www.w3.org/2000/svg"
   xmlns="http://www.w3.org/2000/svg"
   xmlns:sodipodi="http://sodipodi.sourceforge.net/DTD/sodipodi-0.dtd"
   xmlns:inkscape="http://www.inkscape.org/namespaces/inkscape"
   width="744.09448819"
   height="1052.3622047"
   id="svg2"
   version="1.1"
   inkscape:version="0.48.4 r9939"
   sodipodi:docname="New document 1">
  <defs
     id="defs4" />
  <sodipodi:namedview
     id="base"
     pagecolor="#000000"
     bordercolor="#666666"
     borderopacity="1.0"
     inkscape:pageopacity="1"
     inkscape:pageshadow="2"
     inkscape:zoom="0.35"
     inkscape:cx="310.93914"
     inkscape:cy="137.97603"
     inkscape:document-units="px"
     inkscape:current-layer="layer1"
     showgrid="false"
     showborder="true"
     inkscape:showpageshadow="false"
     showguides="true"
     inkscape:window-width="1920"
     inkscape:window-height="1017"
     inkscape:window-x="0"
     inkscape:window-y="1227"
     inkscape:window-maximized="1" />
  <metadata
     id="metadata7">
    <rdf:RDF>
      <cc:Work
         rdf:about="">
        <dc:format>image/svg+xml</dc:format>
        <dc:type
           rdf:resource="http://purl.org/dc/dcmitype/StillImage" />
        <dc:title></dc:title>
      </cc:Work>
    </rdf:RDF>
  </metadata>
  <g
     inkscape:label="Layer 1"
     inkscape:groupmode="layer"
     id="layer1">
    <path
       style="fill:#aa0000;stroke:none"
       d="m 311.53125,368.125 c -12.69213,0.25428 -25.33784,4.28466 -34.84375,12.46875 -28.9009,24.88216 -6.60312,40.84072 -12.78125,49.65625 -7.52494,10.73732 -25.00744,13.25913 -66.8125,19.09375 -13.69617,1.91153 30.25379,34.53641 85.375,23.625 -1.43603,6.46218 -16.93665,21.63729 -41.78125,59.5625 l 0,21.0625 c -3e-5,8.97311 4.17442,13.46876 12.5,13.46875 4.71776,10e-6 8.50726,-1.34856 11.375,-4.03125 2.86763,-2.68266 4.28119,-6.24718 4.28125,-10.6875 l 0,-46.90625 19.4375,0 0,74.9375 -19.4375,0 0,-8.875 c -5.3654,8.04803 -12.84816,12.0625 -22.46875,12.0625 -7.95555,0 -14.15348,-2.2797 -18.59375,-6.8125 -3.11524,-3.24779 -5.08562,-7.44629 -5.96875,-12.59375 -41.1927,85.67602 50.63325,131.31085 151.625,130.34375 67.31086,-0.64457 121.54756,-11.23381 156.35714,-56.00446 43.73296,-56.24752 -5.60452,-65.55739 16.36161,-100.21429 -6.97635,-0.92717 -12.86322,0.0407 -17.65625,2.09375 l 0,40 -19.40625,0 0,-62.8125 c -1.48729,-2.73726 -3.37856,-5.51167 -5.75,-8.28125 -3.96138,16.49121 -6.00043,26.02505 -18.25,32.34375 l 0,19.03125 c -3e-5,3.33024 0.41741,5.57744 1.25,6.6875 0.83252,1.01758 2.53479,1.50001 5.125,1.5 1.01753,10e-6 2.49483,-0.12872 4.4375,-0.40625 l 0,13.59375 c -3.14525,1.01756 -6.871,1.53125 -11.21875,1.53125 -12.67335,0 -19.03126,-5.87672 -19.03125,-17.625 l 0,-46.0625 -0.375,0 c -7.59704,8.86171 -22.53331,14.32415 -40.125,15.15625 l 26.5625,45.34375 -22.75,0 -17.90625,-33.03125 -7.75,8.46875 0,24.5625 -19.4375,0 0,-42.4375 c -21.5184,5.84577 -39.15235,18.55886 -51.4375,28.8125 1.71611,0.7519 3.60379,1.12501 5.6875,1.125 3.7927,10e-6 6.77856,-0.9961 8.90625,-3.03125 2.12759,-2.12762 3.76612,-5.59591 4.96875,-10.40625 l 18.59375,0 c -0.92513,8.97311 -4.32968,16.07091 -10.25,21.34375 -5.82794,5.18034 -13.2782,7.78125 -22.34375,7.78125 -7.63177,0 -14.09186,-1.60821 -19.40625,-4.84375 -1.02759,0.85873 -1.9454,1.62348 -2.6875,2.125 -4.12521,2.78787 -5.06292,-0.92198 -4.125,-7.90625 -5.91095,-6.82321 -8.87501,-16.30316 -8.875,-28.5 -10e-6,-12.76579 3.08333,-22.65698 9.28125,-29.6875 5.86333,-6.65089 13.97853,-10.17217 24.3125,-10.53125 20.1909,-34.09645 47.42643,-72.30485 21.34375,-114.15625 -9.1105,-14.6184 -27.76246,-22.30914 -46.3125,-21.9375 z m 13.3125,160.625 c -0.26842,0.62601 -0.49311,1.27633 -0.71875,1.96875 0.2461,-0.65025 0.47308,-1.33149 0.71875,-1.96875 z"
       id="path3822"
       inkscape:connector-curvature="0"
       sodipodi:nodetypes="ssssccsssccccccsccsscccccccsccccsscccccccccccsccccscscsscssccc" />
    <path
       style="font-size:138.75912475999999174px;font-style:normal;font-variant:normal;font-weight:normal;font-stretch:normal;line-height:125%;letter-spacing:0px;word-spacing:0px;opacity:1;fill:#aa0000;fill-opacity:1;stroke:none;font-family:Monospace;-inkscape-font-specification:Monospace"
       d="M 183.78125 479.21875 L 183.78125 515.15625 C 179.06339 507.84834 172.19055 504.18758 163.125 504.1875 C 154.15188 504.18758 146.63787 508.04082 140.625 515.71875 C 134.6121 523.30431 131.62499 532.74556 131.625 544.03125 C 131.62499 555.22451 134.51586 564.60202 140.34375 572.1875 C 146.26412 579.773 153.87436 583.5625 163.125 583.5625 C 172.09804 583.5625 178.97088 579.96547 183.78125 572.75 L 183.78125 580.375 L 203.21875 580.375 L 203.21875 479.21875 L 183.78125 479.21875 z M 383.875 479.21875 L 383.875 537.9375 C 392.99361 535.4603 402.79201 534.18651 413.1875 534.90625 C 417.27725 535.18941 421.27612 535.21478 425.15625 535.03125 L 424.40625 533.75 L 449.9375 505.4375 L 427.875 505.4375 L 403.3125 534.59375 L 403.3125 479.21875 L 383.875 479.21875 z M 509.09375 479.21875 L 509.09375 517.5625 C 517.19542 532.47315 513.57017 546.69128 513.4375 558 C 514.6048 551.62674 519.69032 544.14853 528.5 540.375 L 528.5 535.40625 C 528.49997 531.15102 529.88104 527.65024 532.65625 524.875 C 535.5239 522.09988 539.15218 520.71881 543.5 520.71875 C 551.45547 520.71881 555.43744 525.3432 555.4375 534.59375 L 555.4375 580.375 L 574.84375 580.375 L 574.84375 530.15625 C 574.84368 525.25348 574.10502 520.9828 572.625 517.375 C 571.14483 513.76733 569.12135 511.07018 566.53125 509.3125 C 564.03352 507.46245 561.43262 506.17762 558.75 505.4375 C 556.15977 504.60502 553.39764 504.18758 550.4375 504.1875 C 541.18685 504.18758 533.86532 508.20204 528.5 516.25 L 528.5 479.21875 L 509.09375 479.21875 z M 593.53125 479.21875 L 593.53125 496.5625 L 612.9375 496.5625 L 612.9375 479.21875 L 593.53125 479.21875 z M 74.34375 483.65625 L 69.625 507.8125 L 53.125 507.8125 L 53.125 521.53125 L 66.875 521.53125 L 62.6875 542.78125 L 49.25 542.78125 L 49.25 556.5 L 59.9375 556.5 L 54.375 584.8125 L 69.09375 584.8125 L 74.625 556.5 L 88.9375 556.5 L 83.375 584.8125 L 97.9375 584.8125 L 103.5 556.5 L 120 556.5 L 120 542.78125 L 106.125 542.78125 L 110.4375 521.53125 L 125.5625 521.53125 L 125.5625 507.8125 L 113.0625 507.8125 L 117.78125 483.65625 L 103.21875 483.65625 L 98.5 507.8125 L 84.21875 507.8125 L 88.9375 483.65625 L 74.34375 483.65625 z M 465.65625 486.84375 L 465.65625 506.96875 L 456.09375 506.96875 L 456.09375 519.875 L 465.28125 519.875 C 467.50846 517.27702 469.11831 514.39575 469.96875 511.25 C 478.5256 514.24601 480.53203 532.60696 472.875 546.0625 C 477.8386 544.76158 481.82171 543.31282 485.09375 541.625 L 485.09375 519.875 L 495.90625 519.875 L 495.90625 506.96875 L 485.09375 506.96875 L 485.09375 486.84375 L 465.65625 486.84375 z M 338.28125 504.1875 C 337.67705 504.1875 337.08965 504.19826 336.5 504.21875 C 335.46344 505.96919 334.42853 507.70871 333.4375 509.4375 C 331.19677 513.34629 328.04045 520.45803 324.84375 528.75 C 327.37399 522.84883 331.79398 519.87504 338.125 519.875 C 342.10272 519.87506 345.12107 520.93492 347.15625 523.0625 C 349.28384 525.09769 350.88987 528.56598 352 533.46875 L 370.59375 533.46875 C 369.94613 524.3107 366.73406 517.14915 360.90625 511.96875 C 355.17082 506.78848 347.62431 504.18758 338.28125 504.1875 z M 660.15625 504.1875 C 650.6281 504.18758 643.08159 506.46728 637.53125 511 C 632.07338 515.44036 629.37499 521.4783 629.375 529.15625 C 629.37499 530.7289 629.50372 532.23746 629.78125 533.625 C 630.05876 535.01264 630.47621 536.23372 631.03125 537.34375 C 631.58628 538.36136 632.09996 539.29249 632.5625 540.125 C 633.11753 540.95759 633.85618 541.75999 634.78125 542.5 C 635.7063 543.14758 636.44495 543.69376 637 544.15625 C 637.64753 544.61882 638.51491 545.06875 639.625 545.53125 C 640.73505 545.90131 641.47371 546.19002 641.84375 546.375 C 642.30626 546.56005 643.04491 546.84876 644.0625 547.21875 C 645.08004 547.4963 645.62622 547.62503 645.71875 547.625 L 668.90625 554.84375 C 671.31136 555.58382 672.98114 556.41871 673.90625 557.34375 C 674.92376 558.26883 675.43745 559.45742 675.4375 560.9375 C 675.43745 563.25017 674.12137 565.04868 671.53125 566.34375 C 669.03354 567.63885 665.53276 568.31251 661 568.3125 C 655.4496 568.31251 651.6601 567.47762 649.625 565.8125 C 647.68235 564.14741 646.36627 561.73898 645.71875 558.59375 L 626.71875 558.59375 C 627.27378 575.24485 639.05972 583.5625 662.09375 583.5625 C 668.29161 583.5625 673.65465 582.72761 678.1875 581.0625 C 682.72024 579.4899 686.12354 577.37018 688.34375 574.6875 C 690.65633 572.00483 692.29486 569.30769 693.3125 566.625 C 694.33 563.84983 694.84368 561.02396 694.84375 558.15625 C 694.84368 548.44314 689.96183 542.18023 680.15625 539.3125 L 655.59375 532.21875 C 652.91104 531.38624 651.11253 530.6151 650.1875 529.875 C 649.26241 529.0425 648.78122 527.8864 648.78125 526.40625 C 648.78122 524.27867 649.80859 522.60889 651.84375 521.40625 C 653.87885 520.11123 656.60849 519.46881 660.03125 519.46875 C 669.28181 519.46881 673.93869 522.84086 674.03125 529.59375 L 692.78125 529.59375 C 692.59617 521.63829 689.64156 515.44036 683.90625 511 C 678.17082 506.46728 670.23937 504.18758 660.15625 504.1875 z M 221.25 505.4375 L 221.25 557.625 C 221.25 559.95898 221.46309 562.11964 221.8125 564.15625 C 223.77959 560.06493 225.99903 555.92031 228.5625 551.71875 C 232.82203 544.73731 236.85711 538.37834 240.6875 532.53125 L 240.6875 505.4375 L 221.25 505.4375 z M 593.53125 505.4375 L 593.53125 580.375 L 612.9375 580.375 L 612.9375 505.4375 L 593.53125 505.4375 z M 167.40625 520.4375 C 172.30903 520.43756 176.25851 522.65352 179.21875 527.09375 C 182.27139 531.44158 183.78119 537.15832 183.78125 544.28125 C 183.78119 551.12673 182.27139 556.68224 179.21875 560.9375 C 176.166 565.19279 172.21652 567.34376 167.40625 567.34375 C 162.5959 567.34376 158.67767 565.1603 155.625 560.8125 C 152.57227 556.46474 151.03123 550.87673 151.03125 544.03125 C 151.03123 537.09334 152.57227 531.44158 155.625 527.09375 C 158.67767 522.65352 162.5959 520.43756 167.40625 520.4375 z M 81.4375 521.53125 L 95.71875 521.53125 L 91.5625 542.78125 L 77.28125 542.78125 L 81.4375 521.53125 z M 324.125 530.71875 C 318.63974 545.21223 313.16526 562.63138 311.78125 572.9375 C 311.87769 573.04883 311.96448 573.17135 312.0625 573.28125 C 313.99934 575.42045 316.17812 577.24805 318.59375 578.71875 C 321.85685 575.99186 326.5152 571.69297 332.4375 566.75 C 330.11571 565.73272 328.11765 564.0186 326.46875 561.625 C 323.69354 557.46225 322.31248 551.74551 322.3125 544.4375 C 322.31249 538.93643 322.93462 534.37161 324.125 530.71875 z "
       id="text2985" />
  </g>
</svg>
