<?xml version="1.0" encoding="UTF-8" standalone="no"?>
<!-- Created with Inkscape (http://www.inkscape.org/) -->

<svg
   xmlns:dc="http://purl.org/dc/elements/1.1/"
   xmlns:cc="http://creativecommons.org/ns#"
   xmlns:rdf="http://www.w3.org/1999/02/22-rdf-syntax-ns#"
   xmlns:svg="http://www.w3.org/2000/svg"
   xmlns="http://www.w3.org/2000/svg"
   xmlns:sodipodi="http://sodipodi.sourceforge.net/DTD/sodipodi-0.dtd"
   xmlns:inkscape="http://www.inkscape.org/namespaces/inkscape"
   width="744.09448819"
   height="1052.3622047"
   id="svg2"
   version="1.1"
   inkscape:version="0.48.4 r9939"
   sodipodi:docname="duckthis.svg">
  <defs
     id="defs4" />
  <sodipodi:namedview
     id="base"
     pagecolor="#000000"
     bordercolor="#666666"
     borderopacity="1.0"
     inkscape:pageopacity="1"
     inkscape:pageshadow="2"
     inkscape:zoom="0.7"
     inkscape:cx="734.25473"
     inkscape:cy="245.53466"
     inkscape:document-units="px"
     inkscape:current-layer="layer1"
     showgrid="false"
     showborder="true"
     inkscape:showpageshadow="false"
     showguides="true"
     inkscape:window-width="1920"
     inkscape:window-height="1017"
     inkscape:window-x="0"
     inkscape:window-y="1227"
     inkscape:window-maximized="1"
     inkscape:snap-bbox="true"
     inkscape:bbox-nodes="true"
     inkscape:snap-bbox-edge-midpoints="true"
     inkscape:snap-bbox-midpoints="true"
     inkscape:bbox-paths="true"
     inkscape:snap-page="true" />
  <metadata
     id="metadata7">
    <rdf:RDF>
      <cc:Work
         rdf:about="">
        <dc:format>image/svg+xml</dc:format>
        <dc:type
           rdf:resource="http://purl.org/dc/dcmitype/StillImage" />
      </cc:Work>
    </rdf:RDF>
  </metadata>
  <g
     inkscape:label="Layer 1"
     inkscape:groupmode="layer"
     id="layer1">
    <path
       sodipodi:nodetypes="sssssscccccssscss"
       inkscape:connector-curvature="0"
       id="path3040"
       d="m 209.6343,373.90483 c 5.46588,-7.79915 -14.24593,-21.93249 11.32288,-43.94585 20.70129,-17.82277 58.22389,-13.39799 71.79868,8.38385 24.26018,38.92696 -3.65799,74.27674 -21.61315,105.59833 -7.83165,13.66185 -27.93222,71.57887 -15.51157,63.1849 8.89877,-6.01389 41.42202,-43.73174 86.07939,-40.63986 24.83158,1.71925 46.3373,-6.57129 50.22209,-20.94121 7.57046,2.65058 9.35656,18.91643 2.58246,30.82061 20.8311,-5.45968 22.51555,-14.05939 26.95637,-32.54642 13.52662,15.79756 9.06552,31.25483 8.92679,43.09638 1.59455,-8.70614 11.4309,-19.77158 28.9471,-17.44363 -19.43336,30.66111 21.68376,55.94457 -17.00696,105.70701 -30.79627,39.60881 -80.67244,45.19643 -140.22287,45.76668 -93.61435,0.89647 -173.49445,-58.03223 -123.73442,-139.5898 28.21111,-46.2384 46.205,-63.07567 47.67145,-69.67422 -48.76588,9.65338 -87.64947,-19.1944 -75.53227,-20.88554 36.985,-5.16191 52.45667,-7.39188 59.11403,-16.89123 z"
       style="fill:#ffffff;stroke:none;opacity:1" />
    <path
       inkscape:connector-curvature="0"
       id="path3764"
       style="font-size:79.95159911999998315px;font-style:normal;font-variant:normal;font-weight:normal;font-stretch:normal;line-height:125%;letter-spacing:0px;word-spacing:0px;opacity:1;fill:#ffffff;fill-opacity:1;stroke:none;font-family:Ultra;-inkscape-font-specification:Ultra"
       d="m 134.57495,505.22663 -5.19216,14.56149 5.50448,0 5.30928,-14.56149 10.77473,0 -5.11409,14.56149 9.91587,0 -3.74773,10.07203 -9.68164,0 -2.06906,5.58256 10.38434,0 -3.74773,10.07203 -10.07203,0 -5.30929,14.56149 -10.8528,0 5.19217,-14.56149 -5.50448,0 -5.27025,14.56149 -10.89184,0 5.19217,-14.56149 -10.228188,0 3.747728,-10.07203 9.99395,0 2.06906,-5.58256 -10.69665,0 3.74773,-10.07203 10.42338,0 5.27025,-14.56149 10.8528,0 m -10.8528,30.21608 5.81679,0 1.91291,-5.58256 -5.73872,0 -1.99098,5.58256" />
    <path
       style="font-size:79.95159911999998315px;font-style:normal;font-variant:normal;font-weight:normal;font-stretch:normal;line-height:125%;letter-spacing:0px;word-spacing:0px;opacity:1;fill:#000000;fill-opacity:1;stroke:none;font-family:Ultra;-inkscape-font-specification:Ultra"
       d="M 183.03125 502.5625 L 183.03125 517.0625 C 185.32152 517.06254 186.94851 517.37543 187.9375 518 C 188.92648 518.59864 189.43749 519.75108 189.4375 521.46875 L 189.4375 541.21875 C 189.43749 542.91045 188.92648 544.06289 187.9375 544.6875 C 186.94851 545.28611 185.32152 545.59377 183.03125 545.59375 L 183.03125 560.0625 L 222.75 560.15625 C 226.96615 560.15625 230.97097 559.64524 234.71875 558.65625 C 238.46642 557.66727 241.71517 556.08199 244.5 553.84375 C 247.31073 551.60553 249.54257 548.63842 251.15625 544.96875 C 252.79581 541.29912 253.59368 536.76238 253.59375 531.375 C 253.59368 525.98767 252.75934 521.48219 251.09375 517.8125 C 249.45405 514.11687 247.29516 511.14453 244.5625 508.90625 C 241.85575 506.66807 238.73741 505.05154 235.25 504.0625 C 231.76248 503.07357 228.15916 502.56256 224.4375 502.5625 L 183.03125 502.5625 z M 376.53125 502.5625 L 376.53125 517.0625 L 377.40625 517.0625 C 378.65549 517.06254 379.75056 517.42757 380.6875 518.15625 C 381.65045 518.85899 382.12499 519.95929 382.125 521.46875 L 382.125 541.46875 C 382.12499 542.48378 381.77042 543.42764 381.09375 544.3125 C 380.4431 545.17137 379.44187 545.59377 378.0625 545.59375 L 376.53125 545.59375 L 376.53125 560.0625 L 403.78125 560.0625 L 403.78125 542.8125 L 408.5 540.46875 C 409.67113 541.53583 410.4898 542.35973 410.90625 542.90625 C 411.34865 543.42679 411.56246 543.84395 411.5625 544.15625 C 411.56246 544.5987 411.4008 544.92726 411.0625 545.1875 C 410.75015 545.44778 410.12439 545.59377 409.1875 545.59375 L 407.15625 545.59375 L 407.15625 560.0625 L 441 560.0625 L 441 545.59375 C 439.12607 545.59377 437.67642 545.43732 436.6875 545.125 C 435.69845 544.8127 434.6503 544.03574 433.53125 542.8125 L 424.375 532.96875 L 426.125 532.09375 C 427.40022 531.5212 428.76647 531.15618 430.25 531 C 431.75945 530.81783 433.22476 530.71877 434.65625 530.71875 L 437.0625 530.71875 L 437.0625 517.0625 L 407.375 517.0625 L 407.375 530.71875 L 409.1875 530.71875 C 410.56683 530.71877 411.24996 531.03688 411.25 531.6875 C 411.24996 531.94778 411.09875 532.25022 410.8125 532.5625 C 410.5522 532.84881 409.97337 533.17736 409.0625 533.59375 L 403.78125 536.1875 L 403.78125 502.5625 L 376.53125 502.5625 z M 349 515.3125 C 345.14814 515.31255 341.63344 515.79231 338.40625 516.78125 C 335.20505 517.77028 332.3996 519.2356 330.03125 521.1875 C 327.68891 523.11346 325.86379 525.51741 324.5625 528.40625 C 323.2612 531.29516 322.625 534.67422 322.625 538.5 C 322.625 542.50801 323.2612 545.96011 324.5625 548.875 C 325.86379 551.76388 327.67847 554.16784 329.96875 556.09375 C 332.25902 557.99364 334.93415 559.40682 338.03125 560.34375 C 341.12831 561.28069 344.46568 561.75 348.03125 561.75 C 355.13629 561.75 360.61166 560.38375 364.4375 557.625 C 368.28929 554.84024 370.63587 550.52254 371.46875 544.71875 L 358.84375 544.71875 C 358.79166 545.68172 358.57262 546.55254 358.15625 547.28125 C 357.76582 547.98397 357.24959 548.5628 356.625 549.03125 C 356.02637 549.4737 355.34847 549.79703 354.59375 550.03125 C 353.83897 550.2655 353.1037 550.40626 352.375 550.40625 C 349.82444 550.40626 347.93672 549.47285 346.6875 547.625 C 345.46426 545.75115 344.84373 542.61192 344.84375 538.1875 C 344.84373 533.76312 345.42778 530.58743 346.625 528.6875 C 347.82217 526.78765 349.54299 525.84378 351.78125 525.84375 C 353.34277 525.84378 354.42739 526.05237 355 526.46875 C 355.59856 526.85917 356.17739 527.27634 356.75 527.71875 C 355.76098 528.08315 354.87972 528.71934 354.125 529.65625 C 353.37022 530.59321 352.99996 531.84994 353 533.4375 C 352.99996 534.14022 353.10948 534.91197 353.34375 535.71875 C 353.60397 536.49955 354.02115 537.24005 354.59375 537.96875 C 355.19231 538.67148 356.02665 539.28678 357.09375 539.78125 C 358.16077 540.24974 359.55827 540.46877 361.25 540.46875 C 363.01972 540.46877 364.49549 540.19759 365.71875 539.625 C 366.94192 539.02642 367.93793 538.24424 368.71875 537.28125 C 369.5255 536.31832 370.09911 535.23369 370.4375 534.0625 C 370.80181 532.89136 370.99995 531.72325 371 530.5 C 370.99995 528.9645 370.6297 527.30627 369.875 525.5625 C 369.14622 523.79278 367.89994 522.16579 366.15625 520.65625 C 364.4385 519.12076 362.18576 517.82755 359.375 516.8125 C 356.56417 515.79753 353.08604 515.31255 349 515.3125 z M 212.46875 517.0625 L 216.125 517.0625 C 217.60844 517.06254 219.02684 517.2242 220.40625 517.5625 C 221.81161 517.87485 223.01097 518.54753 224 519.5625 C 225.01496 520.57755 225.84409 522.03765 226.46875 523.9375 C 227.09333 525.8114 227.4062 528.27794 227.40625 531.375 C 227.4062 534.52416 227.0881 537.0324 226.4375 538.90625 C 225.7868 540.75411 224.94724 542.19854 223.90625 543.1875 C 222.8912 544.1765 221.69184 544.8127 220.3125 545.125 C 218.95912 545.43732 217.55638 545.59377 216.125 545.59375 L 212.46875 545.59375 L 212.46875 517.0625 z M 256.15625 517.0625 L 256.15625 531.53125 L 258.46875 531.53125 C 259.84812 531.53128 260.78153 531.83893 261.25 532.4375 C 261.74449 533.01009 261.99999 533.99565 262 535.375 L 262 546.03125 C 261.99999 547.61884 262.2138 549.3032 262.65625 551.125 C 263.12471 552.9208 263.96427 554.62595 265.1875 556.1875 C 266.4107 557.72303 268.16801 558.98499 270.40625 560 C 272.64446 561.015 275.52818 561.53125 279.09375 561.53125 C 284.16878 561.53125 288.03282 560.49355 290.6875 558.4375 C 293.3421 556.38146 294.96386 553.35697 295.5625 549.375 L 296.1875 549.375 L 296.1875 560.0625 L 319.375 560.0625 L 319.375 545.59375 L 317.3125 545.59375 C 316.40154 545.59377 315.57241 545.38518 314.84375 544.96875 C 314.14099 544.55235 313.81244 543.71801 313.8125 542.46875 L 313.8125 517.0625 L 286.5625 517.0625 L 286.5625 531.53125 L 288.84375 531.53125 C 290.22309 531.53128 291.1565 531.83893 291.625 532.4375 C 292.11946 533.01009 292.37496 533.99565 292.375 535.375 L 292.375 540.625 C 292.37496 542.44683 291.9578 543.85479 291.125 544.84375 C 290.31817 545.83275 289.06143 546.34377 287.34375 546.34375 C 286.92731 546.34377 286.46322 546.29161 285.96875 546.1875 C 285.50026 546.08341 285.07786 545.87483 284.6875 545.5625 C 284.32311 545.22418 284.01545 544.75486 283.78125 544.15625 C 283.54699 543.53164 283.43747 542.70252 283.4375 541.6875 L 283.4375 517.0625 L 256.15625 517.0625 z "
       id="path3766" />
    <path
       inkscape:connector-curvature="0"
       id="path3774"
       style="font-size:79.95159911999998315px;font-style:normal;font-variant:normal;font-weight:normal;font-stretch:normal;line-height:125%;letter-spacing:0px;word-spacing:0px;opacity:1;fill:#ffffff;fill-opacity:1;stroke:none;font-family:Ultra;-inkscape-font-specification:Ultra"
       d="m 494.70851,502.57198 0,14.48342 11.67262,0 0,14.48342 -11.67262,0 0,11.98493 c -3e-5,1.71773 0.2342,3.12313 0.7027,4.2162 0.49446,1.0931 1.49646,1.63964 3.00599,1.63963 0.8328,10e-6 1.49646,-0.15614 1.99098,-0.46846 0.52049,-0.33833 0.92389,-0.76776 1.21021,-1.28829 0.31227,-0.54653 0.50747,-1.15814 0.58558,-1.83482 0.078,-0.70269 0.11708,-1.45744 0.11712,-2.26426 l 0,-5.81679 4.48947,0 0,6.28526 c -4e-5,2.52453 -0.27332,4.87987 -0.81982,7.06603 -0.52056,2.18619 -1.43146,4.07306 -2.73272,5.66064 -1.27531,1.58758 -3.01904,2.84984 -5.23121,3.78677 -2.21223,0.93693 -4.997,1.4054 -8.35432,1.4054 -3.72172,0 -6.68867,-0.45546 -8.90086,-1.36636 -2.21221,-0.91091 -3.89088,-2.16015 -5.03601,-3.74773 -1.14515,-1.58758 -1.8999,-3.47445 -2.26425,-5.66064 -0.33835,-2.18616 -0.50752,-4.56753 -0.50751,-7.14411 l 0,-12.4534 -6.1291,0 0,-12.88282 c 1.95194,4e-5 3.76074,-0.41638 5.4264,-1.24925 1.69168,-0.85881 3.13611,-2.02997 4.33331,-3.5135 1.22321,-1.50945 2.16014,-3.22716 2.8108,-5.15313 0.67666,-1.92586 1.015,-3.98191 1.01501,-6.16814 l 14.28823,0" />
    <path
       inkscape:connector-curvature="0"
       id="path3776"
       style="font-size:79.95159911999998315px;font-style:normal;font-variant:normal;font-weight:normal;font-stretch:normal;line-height:125%;letter-spacing:0px;word-spacing:0px;opacity:1;fill:#ffffff;fill-opacity:1;stroke:none;font-family:Ultra;-inkscape-font-specification:Ultra"
       d="m 551.66619,515.29865 c 3.43537,5e-5 6.22014,0.50755 8.35432,1.52252 2.16009,1.01505 3.83876,2.30333 5.03601,3.86485 1.22316,1.53556 2.05599,3.21423 2.49849,5.03601 0.44238,1.79582 0.6636,3.4875 0.66366,5.07505 l 0,10.96992 c -6e-5,1.37939 0.23417,2.36838 0.7027,2.96696 0.49443,0.57258 1.43136,0.85887 2.8108,0.85885 l 2.1081,0 0,14.48342 -27.0149,0 0,-24.94583 c -4e-5,-1.01499 -0.13017,-1.82179 -0.39039,-2.42041 -0.23427,-0.6246 -0.54658,-1.09306 -0.93693,-1.4054 -0.3644,-0.33831 -0.78082,-0.55953 -1.24924,-0.66366 -0.46851,-0.10408 -0.92396,-0.15613 -1.36637,-0.15616 -1.69171,3e-5 -2.95397,0.49452 -3.78677,1.48348 -0.83285,0.98901 -1.24927,2.39441 -1.24924,4.2162 l 0,5.58255 c -3e-5,1.37939 0.2342,2.36838 0.7027,2.96696 0.49446,0.57258 1.43139,0.85887 2.8108,0.85885 l 2.88888,0 0,14.48342 -33.41727,0 0,-14.48342 2.30329,0 c 1.06705,2e-5 1.87386,-0.33832 2.42041,-1.01501 0.57256,-0.70268 0.85884,-1.53551 0.85885,-2.49848 l -0.0781,-20.61253 c -1e-5,-1.50946 -0.48149,-2.61556 -1.44444,-3.3183 -0.93694,-0.72868 -2.03003,-1.09305 -3.27927,-1.09309 l -0.78077,0 0,-14.48342 27.01489,0 0,14.48342 c -3e-5,0.49454 -0.15618,1.35339 -0.46847,2.57657 -0.31234,1.22325 -0.89792,2.44647 -1.75674,3.66965 l 0.78077,0.39039 c 1.40537,-2.5505 3.29225,-4.58052 5.66064,-6.09006 2.36832,-1.53549 5.5695,-2.30325 9.60356,-2.3033" />
    <path
       inkscape:connector-curvature="0"
       id="path3778"
       style="font-size:79.95159911999998315px;font-style:normal;font-variant:normal;font-weight:normal;font-stretch:normal;line-height:125%;letter-spacing:0px;word-spacing:0px;opacity:1;fill:#ffffff;fill-opacity:1;stroke:none;font-family:Ultra;-inkscape-font-specification:Ultra"
       d="m 605.07136,517.0554 0,24.32122 c -3e-5,1.74375 0.42939,2.88889 1.28828,3.43542 0.85882,0.52053 1.95191,0.78079 3.27926,0.78077 l 1.05405,0 0,14.48342 -32.87072,0 0,-14.48342 1.52251,0 c 1.37937,2e-5 2.39438,-0.42941 3.04503,-1.28828 0.67667,-0.88486 1.01501,-1.83481 1.01502,-2.84984 l 0,-5.50448 c -1e-5,-1.50947 -0.48149,-2.61557 -1.44444,-3.3183 -0.93694,-0.7287 -2.03003,-1.09306 -3.27927,-1.09309 l -0.85885,0 0,-14.48342 27.24913,0 m -22.2912,-9.60356 c 0,-2.23817 0.84584,-4.15108 2.53753,-5.73871 1.7177,-1.58752 4.15112,-2.38131 7.30027,-2.38137 3.20116,6e-5 5.66061,0.79385 7.37834,2.38137 1.74371,1.58763 2.61558,3.50054 2.61561,5.73871 -3e-5,2.29033 -0.8719,4.22926 -2.61561,5.81679 -1.71773,1.5616 -4.17718,2.34238 -7.37834,2.34233 -3.14915,5e-5 -5.58257,-0.78073 -7.30027,-2.34233 -1.69169,-1.58753 -2.53753,-3.52646 -2.53753,-5.81679" />
    <path
       inkscape:connector-curvature="0"
       id="path3780"
       style="font-size:79.95159911999998315px;font-style:normal;font-variant:normal;font-weight:normal;font-stretch:normal;line-height:125%;letter-spacing:0px;word-spacing:0px;opacity:1;fill:#ffffff;fill-opacity:1;stroke:none;font-family:Ultra;-inkscape-font-specification:Ultra"
       d="m 658.98406,531.30459 -10.73569,0 c -0.75478,-1.87384 -1.92595,-3.35731 -3.51349,-4.45043 -1.58762,-1.09306 -3.24026,-1.6396 -4.95794,-1.63964 -1.17119,4e-5 -2.10812,0.22126 -2.8108,0.66367 -0.6767,0.41644 -1.01503,1.05408 -1.01501,1.9129 -2e-5,1.06709 0.59857,1.8739 1.79579,2.42041 1.19716,0.52055 2.69365,0.98901 4.48947,1.4054 1.82178,0.41644 3.78674,0.92395 5.89487,1.52251 2.10806,0.5726 4.06,1.40543 5.85583,2.49849 1.82177,1.09311 3.33127,2.56358 4.52851,4.41139 1.19714,1.84786 1.79574,4.28128 1.79578,7.30027 -4e-5,2.34234 -0.52056,4.38538 -1.56155,6.1291 -1.04108,1.74375 -2.47251,3.17517 -4.29428,4.29428 -1.79582,1.11912 -3.91693,1.95194 -6.36333,2.49849 -2.44647,0.57257 -5.0881,0.85885 -7.92489,0.85885 -2.75877,0 -5.37437,-0.27327 -7.84681,-0.81981 -2.44646,-0.52052 -4.78879,-1.41841 -7.027,-2.69369 l -0.39039,2.69369 -10.30626,0 0,-15.65459 10.69665,0 c 1.015,2.08209 2.29027,3.69569 3.82581,4.84082 1.56154,1.14515 3.27924,1.71772 5.15313,1.71771 1.4314,10e-6 2.44641,-0.26025 3.04503,-0.78078 0.6246,-0.54653 0.93691,-1.14513 0.93694,-1.79579 -3e-5,-1.06704 -0.59863,-1.88686 -1.79579,-2.45944 -1.19722,-0.59859 -2.68069,-1.1191 -4.45043,-1.56156 -1.74376,-0.46845 -3.66967,-0.97595 -5.77776,-1.52251 -2.10811,-0.57256 -4.04704,-1.39237 -5.81679,-2.45945 -1.74374,-1.06704 -3.2142,-2.49847 -4.41139,-4.29428 -1.19719,-1.82179 -1.79579,-4.20315 -1.79579,-7.14411 0,-2.10807 0.46847,-4.03398 1.4054,-5.77775 0.96296,-1.7437 2.32931,-3.21416 4.09908,-4.41139 1.76976,-1.19715 3.85183,-2.10806 6.24622,-2.73273 2.39437,-0.6506 5.02298,-0.97592 7.88585,-0.97597 3.20116,5e-5 6.07702,0.36441 8.62759,1.09309 2.57653,0.70274 4.50245,1.48352 5.77775,2.34233 l 0.39039,-2.77176 10.3453,0 0,15.34228" />
    <path
       inkscape:connector-curvature="0"
       id="path3782"
       style="font-size:79.95159911999998315px;font-style:normal;font-variant:normal;font-weight:normal;font-stretch:normal;line-height:125%;letter-spacing:0px;word-spacing:0px;opacity:1;fill:#ffffff;fill-opacity:1;stroke:none;font-family:Ultra;-inkscape-font-specification:Ultra"
       d="m 665.58163,551.83903 c -10e-6,-1.32731 0.26025,-2.60258 0.78077,-3.82581 0.54654,-1.2232 1.24924,-2.27725 2.1081,-3.16215 0.88488,-0.88486 1.92591,-1.58756 3.12311,-2.10809 1.22321,-0.54653 2.5245,-0.8198 3.90389,-0.81982 1.32731,2e-5 2.60257,0.27329 3.82581,0.81982 1.2232,0.52053 2.27725,1.22323 3.16215,2.10809 0.88486,0.8849 1.58756,1.93895 2.10809,3.16215 0.54653,1.22323 0.8198,2.4985 0.81982,3.82581 -2e-5,1.37938 -0.27329,2.66766 -0.81982,3.86485 -0.52053,1.19719 -1.22323,2.23823 -2.10809,3.12311 -0.8849,0.88488 -1.93895,1.58758 -3.16215,2.1081 -1.22324,0.54654 -2.4985,0.81981 -3.82581,0.81981 -1.37939,0 -2.68068,-0.27327 -3.90389,-0.81981 -1.1972,-0.52052 -2.23823,-1.22322 -3.12311,-2.1081 -0.85886,-0.88488 -1.56156,-1.92592 -2.1081,-3.12311 -0.52052,-1.19719 -0.78078,-2.48547 -0.78077,-3.86485" />
    <path
       style="color:#000000;fill:#000000;fill-opacity:0.03070302000000000;fill-rule:nonzero;stroke:none;stroke-width:3;marker:none;visibility:visible;display:inline;overflow:visible;enable-background:accumulate"
       d="M 8.2415531,0 735.85293,0 c 4.56582,0 8.24155,5.1335543 8.24155,11.510211 l 0,1029.341789 c 0,6.3766 -3.67573,11.5102 -8.24155,11.5102 l -727.6113769,0 C 3.6757326,1052.3622 0,1047.2286 0,1040.852 L 0,11.510211 C 0,5.1335543 3.6757326,0 8.2415531,0 z"
       id="rect2990"
       inkscape:connector-curvature="0" />
  </g>
</svg>
