<?xml version="1.0" encoding="UTF-8" standalone="no"?>
<!-- Generator: Adobe Illustrator 16.0.4, SVG Export Plug-In . SVG Version: 6.00 Build 0)  -->

<svg
   xmlns:dc="http://purl.org/dc/elements/1.1/"
   xmlns:cc="http://creativecommons.org/ns#"
   xmlns:rdf="http://www.w3.org/1999/02/22-rdf-syntax-ns#"
   xmlns:svg="http://www.w3.org/2000/svg"
   xmlns="http://www.w3.org/2000/svg"
   xmlns:sodipodi="http://sodipodi.sourceforge.net/DTD/sodipodi-0.dtd"
   xmlns:inkscape="http://www.inkscape.org/namespaces/inkscape"
   version="1.1"
   id="premier"
   x="0px"
   y="0px"
   width="765"
   height="990"
   viewBox="0 0 764.99996 989.99997"
   enable-background="new 0 0 396.851 481.89"
   xml:space="preserve"
   inkscape:version="0.48.5 r10040"
   sodipodi:docname="xenial.svg"><metadata
     id="metadata63"><rdf:RDF><cc:Work
         rdf:about=""><dc:format>image/svg+xml</dc:format><dc:type
           rdf:resource="http://purl.org/dc/dcmitype/StillImage" /><dc:title></dc:title></cc:Work></rdf:RDF></metadata><defs
     id="defs61" /><sodipodi:namedview
     pagecolor="#ffffff"
     bordercolor="#666666"
     borderopacity="1"
     objecttolerance="10"
     gridtolerance="10"
     guidetolerance="10"
     inkscape:pageopacity="0"
     inkscape:pageshadow="2"
     inkscape:window-width="1366"
     inkscape:window-height="709"
     id="namedview59"
     showgrid="false"
     inkscape:zoom="0.35992842"
     inkscape:cx="243.90131"
     inkscape:cy="462.22488"
     inkscape:window-x="0"
     inkscape:window-y="27"
     inkscape:window-maximized="1"
     inkscape:current-layer="premier"
     units="cm"
     inkscape:showpageshadow="false"
     inkscape:snap-bbox="true"
     inkscape:bbox-paths="true"
     inkscape:bbox-nodes="true"
     inkscape:snap-bbox-edge-midpoints="true"
     inkscape:snap-bbox-midpoints="true"
     inkscape:object-paths="true"
     inkscape:snap-intersection-paths="true"
     inkscape:object-nodes="true"
     inkscape:snap-smooth-nodes="true"
     inkscape:snap-midpoints="true"
     inkscape:snap-object-midpoints="true"
     inkscape:snap-center="true"
     inkscape:snap-page="true"
     inkscape:snap-global="true" /><path
     style="color:#000000;fill:none;fill-opacity:1;fill-rule:nonzero;stroke:#000000;stroke-width:2.39999993;stroke-linecap:butt;stroke-linejoin:miter;stroke-miterlimit:4;stroke-opacity:1;stroke-dashoffset:0;marker:none;visibility:visible;display:inline;overflow:visible;enable-background:accumulate;stroke-dasharray:none"
     d="m 98.053284,63.332207 568.893396,0 0,861.467153 -568.893396,0 z"
     id="rect3164"
     inkscape:connector-curvature="0" /><path
     inkscape:connector-curvature="0"
     id="path3068"
     style="font-size:40px;font-style:normal;font-variant:normal;font-weight:normal;font-stretch:normal;line-height:125%;letter-spacing:0px;word-spacing:0px;fill:#666666;fill-opacity:1;stroke:none;font-family:Baskervald ADF Std;-inkscape-font-specification:Baskervald ADF Std"
     d="M 421.1183,436.59158 539.87999,175.69749 c 26.57603,-59.41153 63.94859,-67.16087 107.13469,-72.32708 l 0,-40.038203 -198.48984,0 0,40.038203 c 39.86407,0 61.4571,10.33244 61.4571,37.45509 0,9.04089 -2.4915,20.66489 -8.30501,34.87199 L 400.35577,392.6787 309.83112,175.69749 c -6.644,-16.79021 -9.13551,-32.28888 -9.96601,-42.62132 0,-19.37332 13.28802,-29.70576 48.99957,-29.70576 l 4.98301,-40.038203 -234.20137,0 0,40.038203 c 42.35557,2.58311 68.10111,15.49866 93.01615,72.32708 L 353.84769,499.87781 206.84896,811.14252 C 181.10342,866.67946 137.91734,884.7611 98.053284,884.7611 l 0,40.03826 200.150816,0 0,-40.03826 c -36.54205,-2.58305 -63.1181,-16.79014 -63.1181,-43.91282 0,-7.74936 2.49151,-18.08172 9.13552,-29.70576 L 368.79671,543.79069 478.42289,811.14252 c 5.81351,16.79027 9.13552,30.99736 9.13552,41.32981 0,23.248 -16.61003,32.28877 -55.64359,32.28877 l 0,40.03826 235.03186,0 0,-40.03826 c -39.03357,-3.87455 -68.93163,-19.37332 -90.52464,-73.61858 L 421.1183,436.59158" /><path
     style="fill:#333333"
     inkscape:connector-curvature="0"
     id="path19"
     d="m 171.07543,422.58555 c -24.11834,0 -43.61219,19.55107 -43.61219,43.69243 0,24.03813 19.48239,43.62351 43.61219,43.62351 24.15266,0 43.65795,-19.58538 43.65795,-43.62351 0.0108,-24.14136 -19.50529,-43.69243 -43.65795,-43.69243 z m 311.75263,198.46413 c -20.89034,11.96171 -27.98734,38.71282 -15.97968,59.53452 12.04199,20.91317 38.73585,28.04463 59.60329,16.02553 20.89033,-12.06502 28.07895,-38.73581 16.02546,-59.62618 -12.06487,-20.86757 -38.75874,-28.01027 -59.64907,-15.93387 z M 265.96909,466.27798 c 0,-43.17724 21.34822,-81.32926 54.16609,-104.39456 l -31.87923,-53.51357 c -38.2093,25.5148 -66.66596,64.57115 -78.49048,110.28951 13.85061,11.25215 22.60737,28.36507 22.60737,47.61862 0,19.10452 -8.75677,36.21744 -22.60737,47.51539 11.82451,45.68403 40.29263,84.70604 78.49048,110.24381 l 31.87923,-53.49075 C 287.31731,547.5156 265.96909,509.40926 265.96909,466.27798 z M 393.4746,338.65788 c 66.64308,0 121.28993,51.0869 127.0362,116.32201 l 62.22465,-1.00729 c -3.0792,-48.07639 -24.08402,-91.26498 -56.34101,-122.9955 -16.64359,6.22707 -35.81693,5.34571 -52.4033,-4.26965 -16.54057,-9.59239 -26.98002,-25.68654 -29.81881,-43.25723 -16.13994,-4.44138 -33.13839,-6.90237 -50.68629,-6.90237 -30.18511,0 -58.71045,7.09694 -84.01924,19.65403 l 30.32248,54.34926 c 16.30019,-7.61213 34.50055,-11.89326 53.68532,-11.89326 z m 0,255.0798 c -19.18477,0 -37.38513,-4.21253 -53.68531,-11.83602 l -30.32249,54.33775 c 25.3088,12.60292 53.83414,19.63121 84.01925,19.63121 17.54789,0 34.54635,-2.36946 50.68629,-6.85655 2.83879,-17.57084 13.27824,-33.66494 29.81881,-43.30316 16.63215,-9.59239 35.7597,-10.49672 52.40329,-4.16671 32.25699,-31.81049 53.26181,-74.98769 56.34101,-123.10988 l -62.22464,-0.85839 c -5.75773,65.14349 -60.39313,116.16175 -127.03621,116.16175 z m 89.35346,-282.31166 c 20.87891,12.0192 47.57277,4.89929 59.61477,-16.00254 12.07636,-20.79873 4.91066,-47.53836 -15.97971,-59.58039 -20.86744,-12.05339 -47.5613,-4.89915 -59.60329,15.9797 -12.0191,20.86737 -4.92211,47.56133 15.96823,59.60323 z" /></svg>