<?xml version="1.0" encoding="UTF-8" standalone="no"?>
<!-- Created with Inkscape (http://www.inkscape.org/) -->

<svg
   xmlns:dc="http://purl.org/dc/elements/1.1/"
   xmlns:cc="http://creativecommons.org/ns#"
   xmlns:rdf="http://www.w3.org/1999/02/22-rdf-syntax-ns#"
   xmlns:svg="http://www.w3.org/2000/svg"
   xmlns="http://www.w3.org/2000/svg"
   xmlns:sodipodi="http://sodipodi.sourceforge.net/DTD/sodipodi-0.dtd"
   xmlns:inkscape="http://www.inkscape.org/namespaces/inkscape"
   width="744.09448819"
   height="1052.3622047"
   id="svg2"
   version="1.1"
   inkscape:version="0.48.5 r10040"
   sodipodi:docname="xerus.svg">
  <defs
     id="defs4" />
  <sodipodi:namedview
     id="base"
     pagecolor="#ffffff"
     bordercolor="#666666"
     borderopacity="1.0"
     inkscape:pageopacity="1"
     inkscape:pageshadow="2"
     inkscape:zoom="0.32"
     inkscape:cx="-303.80079"
     inkscape:cy="351.32144"
     inkscape:document-units="px"
     inkscape:current-layer="layer1"
     showgrid="false"
     inkscape:snap-bbox="true"
     inkscape:bbox-paths="true"
     inkscape:bbox-nodes="true"
     inkscape:snap-bbox-edge-midpoints="true"
     inkscape:snap-bbox-midpoints="true"
     inkscape:object-paths="true"
     inkscape:object-nodes="true"
     inkscape:snap-smooth-nodes="true"
     inkscape:snap-intersection-paths="true"
     inkscape:snap-page="true"
     inkscape:snap-global="false"
     inkscape:window-width="1600"
     inkscape:window-height="1168"
     inkscape:window-x="0"
     inkscape:window-y="0"
     inkscape:window-maximized="1"
     inkscape:showpageshadow="false" />
  <metadata
     id="metadata7">
    <rdf:RDF>
      <cc:Work
         rdf:about="">
        <dc:format>image/svg+xml</dc:format>
        <dc:type
           rdf:resource="http://purl.org/dc/dcmitype/StillImage" />
        <dc:title></dc:title>
      </cc:Work>
    </rdf:RDF>
  </metadata>
  <g
     inkscape:label="Layer 1"
     inkscape:groupmode="layer"
     id="layer1">
    <g
       id="g2996"
       transform="translate(-1670.5398,39.774756)">
      <path
         inkscape:connector-curvature="0"
         id="path2998"
         style="font-size:40px;font-style:normal;font-variant:normal;font-weight:normal;font-stretch:normal;line-height:125%;letter-spacing:0px;word-spacing:0px;fill:#000000;fill-opacity:1;stroke:none;font-family:Baskervald ADF Std;-inkscape-font-specification:Baskervald ADF Std"
         d="M 422.55876,455.97099 577.89527,137.26463 C 612.65589,64.688324 661.53829,55.2214 718.02402,48.910389 l 0,-48.910389 -259.61837,0 0,48.910389 c 52.14093,0 80.38393,12.62204 80.38393,45.754876 0,11.044275 -3.25881,25.244065 -10.86269,42.599365 L 395.40203,402.32735 276.99868,137.26463 c -8.69016,-20.5108 -11.94896,-39.443869 -13.03524,-52.065889 0,-23.666312 17.38031,-36.288352 64.0899,-36.288352 L 334.57095,0 28.243004,0 l 0,48.910389 c 55.399742,3.155515 89.074086,18.93345 121.662156,88.354241 L 334.57095,533.28095 142.30128,913.51975 C 108.62693,981.36317 52.140935,1003.4517 0,1003.4517 l 0,48.9105 261.79091,0 0,-48.9105 c -47.79585,-3.1555 -82.55647,-20.51076 -82.55647,-53.64361 0,-9.46653 3.25881,-22.08856 11.94896,-36.28834 L 354.1238,586.9246 497.51135,913.51975 c 7.60388,20.51079 11.94896,37.86609 11.94896,50.48814 0,28.39956 -21.72539,39.44381 -72.78004,39.44381 l 0,48.9105 307.41421,0 0,-48.9105 C 693.03983,998.71847 653.93412,979.78542 625.69113,913.51975 L 422.55876,455.97099" />
      <path
         style="fill:#dd4814"
         inkscape:connector-curvature="0"
         id="path3000"
         d="m 74.100847,439.26176 c -33.505877,0 -60.587278,27.16091 -60.587278,60.69859 0,33.39456 27.065498,60.60318 60.587278,60.60318 33.553583,0 60.650883,-27.20862 60.650883,-60.60318 0.0159,-33.53768 -27.0973,-60.69859 -60.650883,-60.69859 z M 507.19651,714.97363 c -29.02146,16.61777 -38.88081,53.78114 -22.19943,82.7072 16.72909,29.05326 53.81295,38.96032 82.80261,22.26304 29.02147,-16.7609 39.00804,-53.81296 22.26304,-82.83442 -16.76088,-28.98966 -53.84476,-38.91262 -82.86622,-22.13582 z M 205.92986,499.96035 c 0,-59.983 29.65755,-112.98494 75.24908,-145.02781 l -44.28756,-74.34266 c -53.08145,35.44594 -92.61425,89.70416 -109.04119,153.21743 19.24162,15.63184 31.40679,39.40559 31.40679,66.15304 0,26.54072 -12.16517,50.31448 -31.40679,66.00992 16.42694,63.46557 55.97565,117.67607 109.04119,153.15382 l 44.28756,-74.31085 c -45.59153,-31.99517 -75.24908,-84.9335 -75.24908,-144.85289 z m 177.1343,-177.29333 c 92.58244,0 168.49941,70.97141 176.48231,161.59788 l 86.44421,-1.39939 c -4.27769,-66.78912 -33.45817,-126.78802 -78.27049,-170.86884 -23.12177,8.65078 -49.75791,7.42631 -72.80015,-5.93151 -22.97864,-13.32602 -37.48142,-35.68448 -41.42516,-60.09431 -22.42207,-6.17004 -46.03679,-9.58901 -70.41483,-9.58901 -41.93402,0 -81.56224,9.85934 -116.72194,27.30403 l 42.12486,75.50351 c 22.64469,-10.57494 47.92914,-16.52236 74.58119,-16.52236 z m 0,354.36402 c -26.65205,0 -51.9365,-5.852 -74.58119,-16.44284 l -42.12486,75.48761 c 35.1597,17.50829 74.78792,27.27223 116.72194,27.27223 24.37804,0 47.99276,-3.29176 70.41483,-9.52541 3.94374,-24.40983 18.44652,-46.76829 41.42516,-60.15791 23.10585,-13.32603 49.67838,-14.5823 72.80015,-5.7884 44.81232,-44.19214 73.9928,-104.17513 78.27049,-171.02787 L 559.54647,515.6558 C 551.54768,606.15506 475.6466,677.03104 383.06416,677.03104 z M 507.19651,284.83576 c 29.00557,16.69728 66.08943,6.80613 82.81851,-22.23124 16.7768,-28.89425 6.82204,-66.04172 -22.19942,-82.77081 -28.98966,-16.74498 -66.07354,-6.80613 -82.80262,22.19944 -16.69728,28.98966 -6.83793,66.07352 22.18353,82.80261 z" />
    </g>
    <path
       style="opacity:1;fill:#000000"
       d="M 581.6875 185.59375 L 533.1875 285.15625 C 554.86109 285.89761 576.22223 274.99272 587.8125 254.875 C 600.95031 232.2481 597.6595 204.57707 581.6875 185.59375 z M 380.875 228.65625 C 338.94098 228.65625 299.31595 238.49281 264.15625 255.9375 L 306.28125 331.46875 C 328.92594 320.89381 354.1917 314.9375 380.84375 314.9375 C 390.90454 314.9375 400.77323 315.76476 410.375 317.375 L 450.125 237.9375 C 428.04757 231.966 404.83508 228.65625 380.875 228.65625 z M 234.6875 272.84375 C 181.60605 308.28969 142.05194 362.54923 125.625 426.0625 C 144.86662 441.69434 157.0625 465.4713 157.0625 492.21875 C 157.0625 518.75947 144.86662 542.55456 125.625 558.25 C 142.05194 621.71557 181.62196 675.89725 234.6875 711.375 L 278.96875 637.09375 C 233.37722 605.09858 203.71875 552.13814 203.71875 492.21875 C 203.71875 432.23575 233.37722 379.23037 278.96875 347.1875 L 234.6875 272.84375 z M 565.5 304.25 C 551.65419 309.43027 536.55318 311.06711 521.71875 308.6875 L 497.375 358.65625 C 530.84848 387.91953 553.20839 429.58422 557.34375 476.53125 L 643.78125 475.125 C 639.50356 408.33588 610.31232 348.33082 565.5 304.25 z M 71.90625 431.53125 C 38.400373 431.53125 11.3125 458.68107 11.3125 492.21875 C 11.3125 525.61331 38.38447 552.84375 71.90625 552.84375 C 105.45983 552.84375 132.53125 525.61331 132.53125 492.21875 C 132.54715 458.68107 105.45983 431.53125 71.90625 431.53125 z M 557.34375 507.90625 C 549.34496 598.40551 473.42619 669.3125 380.84375 669.3125 C 354.1917 669.3125 328.92594 663.43459 306.28125 652.84375 L 264.15625 728.34375 C 299.31595 745.85204 338.94098 755.625 380.875 755.625 C 405.25304 755.625 428.85918 752.3274 451.28125 746.09375 C 455.22499 721.68392 469.74011 699.32712 492.71875 685.9375 C 515.8246 672.61147 542.37823 671.36235 565.5 680.15625 C 610.31232 635.96411 639.50356 575.97774 643.78125 509.125 L 557.34375 507.90625 z M 535.6875 699.0625 C 535.01633 699.05805 534.35971 699.07581 533.6875 699.09375 C 523.90986 699.35465 514.06921 702.00725 505 707.25 C 475.97854 723.86777 466.09987 761.01144 482.78125 789.9375 C 499.51034 818.99076 536.60409 828.91603 565.59375 812.21875 C 594.61522 795.45785 604.58875 758.39646 587.84375 729.375 C 576.68075 710.06743 556.49387 699.20032 535.6875 699.0625 z "
       id="path3803" />
    <path
       style="font-size:40px;font-style:normal;font-variant:normal;font-weight:normal;font-stretch:normal;line-height:125%;letter-spacing:0px;word-spacing:0px;fill:#000000;fill-opacity:1;stroke:none;font-family:Baskervald ADF Std;-inkscape-font-specification:Baskervald ADF Std;opacity:1"
       d="m 28.25,0 0,48.90625 c 55.399742,3.155515 89.06818,18.922959 121.65625,88.34375 l 58.03125,124.4375 c 4.28001,-3.21717 8.633,-6.33377 13.09375,-9.3125 0,0 10.36883,-6.81924 15.75,-9.90625 5.35691,-3.07308 16.4375,-8.5625 16.4375,-8.5625 18.14683,-9.00366 37.4145,-16.1446 57.5,-21.1875 L 277,137.25 c -8.69016,-20.5108 -11.94497,-39.44048 -13.03125,-52.0625 0,-23.666312 17.38416,-36.28125 64.09375,-36.28125 L 334.5625,0 z m 430.15625,0 0,48.90625 c 52.14093,0 80.375,12.617164 80.375,45.75 0,11.04427 -3.23987,25.23845 -10.84375,42.59375 L 395.40625,402.3125 367.625,340.09375 c -18.08986,1.56523 -35.22307,6.31771 -50.9375,13.65625 0,0 -8.69319,3.58763 -12.75,5.9375 -3.81624,2.21052 -10.8125,7.625 -10.8125,7.625 -9.31263,6.54515 -17.82512,14.12927 -25.4375,22.53125 l 66.875,143.4375 -42.125,83.3125 c 0.2177,0.1274 0.43754,0.24899 0.65625,0.375 0,0 7.66146,5.20313 11.59375,7.46875 3.9323,2.26563 12,6.125 12,6.125 4.05363,2.33553 8.29725,4.28482 12.6875,5.96875 l 24.75,-49.59375 25.375,57.78125 c 0.44816,0.003 0.89517,0 1.34375,0 41.50026,0 78.97457,-16.39797 106.40625,-43.0625 L 422.5625,455.96875 577.90625,137.25 c 34.76062,-72.576306 83.63927,-82.032739 140.125,-88.34375 l 0,-48.90625 z m -227.5,738.28125 -88.59375,175.25 C 108.63815,981.37467 52.140935,1003.4375 0,1003.4375 l 0,48.9375 261.78125,0 0,-48.9375 C 213.9854,1000.282 179.25,982.94535 179.25,949.8125 c 0,-9.46653 3.24735,-22.08147 11.9375,-36.28125 L 268.96875,757.625 c -5.3445,-2.26393 -10.60916,-4.67389 -15.78125,-7.25 -8.13648,-4.05261 -15.0842,-7.68336 -22.28125,-12.09375 z m 220.125,33.15625 c -4.79288,1.20513 -9.62234,2.28078 -14.5,3.25 L 497.5,913.53125 c 7.60388,20.51079 11.96875,37.8467 11.96875,50.46875 0,28.39956 -21.7266,39.4375 -72.78125,39.4375 l 0,48.9375 307.40625,0 0,-48.9375 C 693.0391,998.70427 653.93049,979.79692 625.6875,913.53125 L 587.34375,827.1875 c -2.96683,2.29335 -6.10812,4.42092 -9.4375,6.34375 l -0.0312,0 c -40.5077,23.33137 -93.03938,9.26854 -116.40625,-31.3125 -5.62233,-9.7493 -8.99976,-20.20373 -10.4375,-30.78125 z"
       id="path3820"
       inkscape:connector-curvature="0"
       sodipodi:nodetypes="cccccscccccccccsccccscccccsccccsccccccccccccsccsccccscccccccccc" />
  </g>
</svg>
