<?xml version="1.0" encoding="UTF-8" standalone="no"?>
<!-- Created with Inkscape (http://www.inkscape.org/) -->

<svg
   xmlns:dc="http://purl.org/dc/elements/1.1/"
   xmlns:cc="http://creativecommons.org/ns#"
   xmlns:rdf="http://www.w3.org/1999/02/22-rdf-syntax-ns#"
   xmlns:svg="http://www.w3.org/2000/svg"
   xmlns="http://www.w3.org/2000/svg"
   xmlns:sodipodi="http://sodipodi.sourceforge.net/DTD/sodipodi-0.dtd"
   xmlns:inkscape="http://www.inkscape.org/namespaces/inkscape"
   id="svg2985"
   version="1.1"
   inkscape:version="0.48.4 r9939"
   width="996.726"
   height="1330.2614"
   xml:space="preserve"
   sodipodi:docname="rojo.svg"><metadata
     id="metadata2991"><rdf:RDF><cc:Work
         rdf:about=""><dc:format>image/svg+xml</dc:format><dc:type
           rdf:resource="http://purl.org/dc/dcmitype/StillImage" /><dc:title /></cc:Work></rdf:RDF></metadata><defs
     id="defs2989"><clipPath
       clipPathUnits="userSpaceOnUse"
       id="clipPath3001"><path
         d="m 0,0 797.3808,0 0,1064.2091 L 0,1064.2091 0,0 z"
         id="path3003" /></clipPath><mask
       maskUnits="userSpaceOnUse"
       x="0"
       y="0"
       width="1"
       height="1"
       id="mask3005"><g
         id="g3007"><g
           clip-path="url(#clipPath3001)"
           id="g3009"><path
             d="m 0,0 797.3808,0 0,1064.2091 L 0,1064.2091 0,0 z"
             style="fill:#000000;fill-opacity:0.506173;fill-rule:nonzero;stroke:none"
             id="path3011" /></g></g></mask><clipPath
       clipPathUnits="userSpaceOnUse"
       id="clipPath3017"><path
         d="m 0,0 797.3808,0 0,1064.2091 L 0,1064.2091 0,0 z"
         id="path3019" /></clipPath><clipPath
       clipPathUnits="userSpaceOnUse"
       id="clipPath3021"><path
         d="M 0,0 798,0 798,1065 0,1065 0,0 z"
         id="path3023" /></clipPath><pattern
       patternTransform="translate(0,-0.790894)"
       patternUnits="userSpaceOnUse"
       x="0"
       y="0"
       width="798"
       height="1065"
       id="pattern3025"><g
         id="g3027" /><g
         id="g3029"><g
           clip-path="url(#clipPath3021)"
           id="g3031"><g
             id="g3033" /></g></g></pattern><clipPath
       clipPathUnits="userSpaceOnUse"
       id="clipPath3047"><path
         d="m 0,0 797.3808,0 0,1064.2091 L 0,1064.2091 0,0 z"
         id="path3049" /></clipPath><mask
       maskUnits="userSpaceOnUse"
       x="0"
       y="0"
       width="1"
       height="1"
       id="mask3051"><g
         id="g3053"><g
           clip-path="url(#clipPath3047)"
           id="g3055"><path
             d="m 0,0 797.3808,0 0,1064.2091 L 0,1064.2091 0,0 z"
             style="fill:#000000;fill-opacity:0.506173;fill-rule:nonzero;stroke:none"
             id="path3057" /></g></g></mask><clipPath
       clipPathUnits="userSpaceOnUse"
       id="clipPath3063"><path
         d="m 0,0 797.3808,0 0,1064.2091 L 0,1064.2091 0,0 z"
         id="path3065" /></clipPath><clipPath
       clipPathUnits="userSpaceOnUse"
       id="clipPath3067"><path
         d="M 0,0 798,0 798,1065 0,1065 0,0 z"
         id="path3069" /></clipPath><pattern
       patternTransform="translate(0,-0.790894)"
       patternUnits="userSpaceOnUse"
       x="0"
       y="0"
       width="798"
       height="1065"
       id="pattern3071"><g
         id="g3073" /><g
         id="g3075"><g
           clip-path="url(#clipPath3067)"
           id="g3077"><g
             id="g3079" /></g></g></pattern><clipPath
       clipPathUnits="userSpaceOnUse"
       id="clipPath3093"><path
         d="m 0,0 797.3808,0 0,1064.2091 L 0,1064.2091 0,0 z"
         id="path3095" /></clipPath><mask
       maskUnits="userSpaceOnUse"
       x="0"
       y="0"
       width="1"
       height="1"
       id="mask3097"><g
         id="g3099"><g
           clip-path="url(#clipPath3093)"
           id="g3101"><path
             d="m 0,0 797.3808,0 0,1064.2091 L 0,1064.2091 0,0 z"
             style="fill:#000000;fill-opacity:0.506173;fill-rule:nonzero;stroke:none"
             id="path3103" /></g></g></mask><clipPath
       clipPathUnits="userSpaceOnUse"
       id="clipPath3109"><path
         d="m 0,0 797.3808,0 0,1064.2091 L 0,1064.2091 0,0 z"
         id="path3111" /></clipPath><clipPath
       clipPathUnits="userSpaceOnUse"
       id="clipPath3113"><path
         d="M 0,0 798,0 798,1065 0,1065 0,0 z"
         id="path3115" /></clipPath><pattern
       patternTransform="translate(0,-0.790894)"
       patternUnits="userSpaceOnUse"
       x="0"
       y="0"
       width="798"
       height="1065"
       id="pattern3117"><g
         id="g3119" /><g
         id="g3121"><g
           clip-path="url(#clipPath3113)"
           id="g3123"><g
             id="g3125" /></g></g></pattern><clipPath
       clipPathUnits="userSpaceOnUse"
       id="clipPath3139"><path
         d="m 0,0 797.3808,0 0,1064.2091 L 0,1064.2091 0,0 z"
         id="path3141" /></clipPath><mask
       maskUnits="userSpaceOnUse"
       x="0"
       y="0"
       width="1"
       height="1"
       id="mask3143"><g
         id="g3145"><g
           clip-path="url(#clipPath3139)"
           id="g3147"><path
             d="m 0,0 797.3808,0 0,1064.2091 L 0,1064.2091 0,0 z"
             style="fill:#000000;fill-opacity:0.506173;fill-rule:nonzero;stroke:none"
             id="path3149" /></g></g></mask><clipPath
       clipPathUnits="userSpaceOnUse"
       id="clipPath3155"><path
         d="m 0,0 797.3808,0 0,1064.2091 L 0,1064.2091 0,0 z"
         id="path3157" /></clipPath><clipPath
       clipPathUnits="userSpaceOnUse"
       id="clipPath3159"><path
         d="M 0,0 798,0 798,1065 0,1065 0,0 z"
         id="path3161" /></clipPath><pattern
       patternTransform="translate(0,-0.790894)"
       patternUnits="userSpaceOnUse"
       x="0"
       y="0"
       width="798"
       height="1065"
       id="pattern3163"><g
         id="g3165" /><g
         id="g3167"><g
           clip-path="url(#clipPath3159)"
           id="g3169"><g
             id="g3171" /></g></g></pattern><clipPath
       clipPathUnits="userSpaceOnUse"
       id="clipPath3185"><path
         d="m 0,0 797.3808,0 0,1064.2091 L 0,1064.2091 0,0 z"
         id="path3187" /></clipPath><mask
       maskUnits="userSpaceOnUse"
       x="0"
       y="0"
       width="1"
       height="1"
       id="mask3189"><g
         id="g3191"><g
           clip-path="url(#clipPath3185)"
           id="g3193"><path
             d="m 0,0 797.3808,0 0,1064.2091 L 0,1064.2091 0,0 z"
             style="fill:#000000;fill-opacity:0.506173;fill-rule:nonzero;stroke:none"
             id="path3195" /></g></g></mask><clipPath
       clipPathUnits="userSpaceOnUse"
       id="clipPath3201"><path
         d="m 0,0 797.3808,0 0,1064.2091 L 0,1064.2091 0,0 z"
         id="path3203" /></clipPath><clipPath
       clipPathUnits="userSpaceOnUse"
       id="clipPath3205"><path
         d="M 0,0 798,0 798,1065 0,1065 0,0 z"
         id="path3207" /></clipPath><pattern
       patternTransform="translate(0,-0.790894)"
       patternUnits="userSpaceOnUse"
       x="0"
       y="0"
       width="798"
       height="1065"
       id="pattern3209"><g
         id="g3211" /><g
         id="g3213"><g
           clip-path="url(#clipPath3205)"
           id="g3215"><g
             id="g3217" /></g></g></pattern><clipPath
       clipPathUnits="userSpaceOnUse"
       id="clipPath3231"><path
         d="m 0,0 797.3808,0 0,1064.2091 L 0,1064.2091 0,0 z"
         id="path3233" /></clipPath><mask
       maskUnits="userSpaceOnUse"
       x="0"
       y="0"
       width="1"
       height="1"
       id="mask3235"><g
         id="g3237"><g
           clip-path="url(#clipPath3231)"
           id="g3239"><path
             d="m 0,0 797.3808,0 0,1064.2091 L 0,1064.2091 0,0 z"
             style="fill:#000000;fill-opacity:0.506173;fill-rule:nonzero;stroke:none"
             id="path3241" /></g></g></mask><clipPath
       clipPathUnits="userSpaceOnUse"
       id="clipPath3247"><path
         d="m 0,0 797.3808,0 0,1064.2091 L 0,1064.2091 0,0 z"
         id="path3249" /></clipPath><clipPath
       clipPathUnits="userSpaceOnUse"
       id="clipPath3251"><path
         d="M 0,0 798,0 798,1065 0,1065 0,0 z"
         id="path3253" /></clipPath><pattern
       patternTransform="translate(0,-0.790894)"
       patternUnits="userSpaceOnUse"
       x="0"
       y="0"
       width="798"
       height="1065"
       id="pattern3255"><g
         id="g3257" /><g
         id="g3259"><g
           clip-path="url(#clipPath3251)"
           id="g3261"><g
             id="g3263" /></g></g></pattern><clipPath
       clipPathUnits="userSpaceOnUse"
       id="clipPath3277"><path
         d="m 0,0 797.3808,0 0,1064.2091 L 0,1064.2091 0,0 z"
         id="path3279" /></clipPath><mask
       maskUnits="userSpaceOnUse"
       x="0"
       y="0"
       width="1"
       height="1"
       id="mask3281"><g
         id="g3283"><g
           clip-path="url(#clipPath3277)"
           id="g3285"><path
             d="m 0,0 797.3808,0 0,1064.2091 L 0,1064.2091 0,0 z"
             style="fill:#000000;fill-opacity:0.506173;fill-rule:nonzero;stroke:none"
             id="path3287" /></g></g></mask><clipPath
       clipPathUnits="userSpaceOnUse"
       id="clipPath3293"><path
         d="m 0,0 797.3808,0 0,1064.2091 L 0,1064.2091 0,0 z"
         id="path3295" /></clipPath><clipPath
       clipPathUnits="userSpaceOnUse"
       id="clipPath3297"><path
         d="M 0,0 798,0 798,1065 0,1065 0,0 z"
         id="path3299" /></clipPath><pattern
       patternTransform="translate(0,-0.790894)"
       patternUnits="userSpaceOnUse"
       x="0"
       y="0"
       width="798"
       height="1065"
       id="pattern3301"><g
         id="g3303" /><g
         id="g3305"><g
           clip-path="url(#clipPath3297)"
           id="g3307"><g
             id="g3309" /></g></g></pattern><clipPath
       clipPathUnits="userSpaceOnUse"
       id="clipPath3323"><path
         d="m 0,0 797.3808,0 0,1064.2091 L 0,1064.2091 0,0 z"
         id="path3325" /></clipPath><mask
       maskUnits="userSpaceOnUse"
       x="0"
       y="0"
       width="1"
       height="1"
       id="mask3327"><g
         id="g3329"><g
           clip-path="url(#clipPath3323)"
           id="g3331"><path
             d="m 0,0 797.3808,0 0,1064.2091 L 0,1064.2091 0,0 z"
             style="fill:#000000;fill-opacity:0.506173;fill-rule:nonzero;stroke:none"
             id="path3333" /></g></g></mask><clipPath
       clipPathUnits="userSpaceOnUse"
       id="clipPath3339"><path
         d="m 0,0 797.3808,0 0,1064.2091 L 0,1064.2091 0,0 z"
         id="path3341" /></clipPath><clipPath
       clipPathUnits="userSpaceOnUse"
       id="clipPath3343"><path
         d="M 0,0 798,0 798,1065 0,1065 0,0 z"
         id="path3345" /></clipPath><pattern
       patternTransform="translate(0,-0.790894)"
       patternUnits="userSpaceOnUse"
       x="0"
       y="0"
       width="798"
       height="1065"
       id="pattern3347"><g
         id="g3349" /><g
         id="g3351"><g
           clip-path="url(#clipPath3343)"
           id="g3353"><g
             id="g3355" /></g></g></pattern><clipPath
       clipPathUnits="userSpaceOnUse"
       id="clipPath3369"><path
         d="m 0,0 797.3808,0 0,1064.2091 L 0,1064.2091 0,0 z"
         id="path3371" /></clipPath><mask
       maskUnits="userSpaceOnUse"
       x="0"
       y="0"
       width="1"
       height="1"
       id="mask3373"><g
         id="g3375"><g
           clip-path="url(#clipPath3369)"
           id="g3377"><path
             d="m 0,0 797.3808,0 0,1064.2091 L 0,1064.2091 0,0 z"
             style="fill:#000000;fill-opacity:0.506173;fill-rule:nonzero;stroke:none"
             id="path3379" /></g></g></mask><clipPath
       clipPathUnits="userSpaceOnUse"
       id="clipPath3385"><path
         d="m 0,0 797.3808,0 0,1064.2091 L 0,1064.2091 0,0 z"
         id="path3387" /></clipPath><clipPath
       clipPathUnits="userSpaceOnUse"
       id="clipPath3389"><path
         d="M 0,0 798,0 798,1065 0,1065 0,0 z"
         id="path3391" /></clipPath><pattern
       patternTransform="translate(0,-0.790894)"
       patternUnits="userSpaceOnUse"
       x="0"
       y="0"
       width="798"
       height="1065"
       id="pattern3393"><g
         id="g3395" /><g
         id="g3397"><g
           clip-path="url(#clipPath3389)"
           id="g3399"><g
             id="g3401" /></g></g></pattern><clipPath
       clipPathUnits="userSpaceOnUse"
       id="clipPath3415"><path
         d="m 0,0 797.3808,0 0,1064.2091 L 0,1064.2091 0,0 z"
         id="path3417" /></clipPath><mask
       maskUnits="userSpaceOnUse"
       x="0"
       y="0"
       width="1"
       height="1"
       id="mask3419"><g
         id="g3421"><g
           clip-path="url(#clipPath3415)"
           id="g3423"><path
             d="m 0,0 797.3808,0 0,1064.2091 L 0,1064.2091 0,0 z"
             style="fill:#000000;fill-opacity:0.506173;fill-rule:nonzero;stroke:none"
             id="path3425" /></g></g></mask><clipPath
       clipPathUnits="userSpaceOnUse"
       id="clipPath3431"><path
         d="m 0,0 797.3808,0 0,1064.2091 L 0,1064.2091 0,0 z"
         id="path3433" /></clipPath><clipPath
       clipPathUnits="userSpaceOnUse"
       id="clipPath3435"><path
         d="M 0,0 798,0 798,1065 0,1065 0,0 z"
         id="path3437" /></clipPath><pattern
       patternTransform="translate(0,-0.790894)"
       patternUnits="userSpaceOnUse"
       x="0"
       y="0"
       width="798"
       height="1065"
       id="pattern3439"><g
         id="g3441" /><g
         id="g3443"><g
           clip-path="url(#clipPath3435)"
           id="g3445"><g
             id="g3447" /></g></g></pattern><clipPath
       clipPathUnits="userSpaceOnUse"
       id="clipPath3461"><path
         d="m 0,0 797.3808,0 0,1064.2091 L 0,1064.2091 0,0 z"
         id="path3463" /></clipPath><mask
       maskUnits="userSpaceOnUse"
       x="0"
       y="0"
       width="1"
       height="1"
       id="mask3465"><g
         id="g3467"><g
           clip-path="url(#clipPath3461)"
           id="g3469"><path
             d="m 0,0 797.3808,0 0,1064.2091 L 0,1064.2091 0,0 z"
             style="fill:#000000;fill-opacity:0.506173;fill-rule:nonzero;stroke:none"
             id="path3471" /></g></g></mask><clipPath
       clipPathUnits="userSpaceOnUse"
       id="clipPath3477"><path
         d="m 0,0 797.3808,0 0,1064.2091 L 0,1064.2091 0,0 z"
         id="path3479" /></clipPath><clipPath
       clipPathUnits="userSpaceOnUse"
       id="clipPath3481"><path
         d="M 0,0 798,0 798,1065 0,1065 0,0 z"
         id="path3483" /></clipPath><pattern
       patternTransform="translate(0,-0.790894)"
       patternUnits="userSpaceOnUse"
       x="0"
       y="0"
       width="798"
       height="1065"
       id="pattern3485"><g
         id="g3487" /><g
         id="g3489"><g
           clip-path="url(#clipPath3481)"
           id="g3491"><g
             id="g3493" /></g></g></pattern></defs><sodipodi:namedview
     pagecolor="#ffffff"
     bordercolor="#666666"
     borderopacity="1"
     objecttolerance="10"
     gridtolerance="10"
     guidetolerance="10"
     inkscape:pageopacity="0"
     inkscape:pageshadow="2"
     inkscape:window-width="1920"
     inkscape:window-height="1017"
     id="namedview2987"
     showgrid="false"
     inkscape:zoom="0.31196878"
     inkscape:cx="-155.86776"
     inkscape:cy="497.61812"
     inkscape:window-x="0"
     inkscape:window-y="27"
     inkscape:window-maximized="1"
     inkscape:current-layer="g2995"
     showguides="false"
     inkscape:showpageshadow="false"
     showborder="true" /><g
     id="g2993"
     inkscape:groupmode="layer"
     inkscape:label="rojo"
     transform="matrix(1.25,0,0,-1.25,0,1330.2614)"><g
       id="g2995"><g
         id="g2997"><g
           id="g2999" /><g
           id="g3013"
           mask="url(#mask3005)"><g
             id="g3015" /><g
             id="g3035"><g
               clip-path="url(#clipPath3017)"
               id="g3037"><g
                 id="g3039"><path
                   d="m 0,0 797.3808,0 0,1064.2091 L 0,1064.2091 0,0 z"
                   style="fill:url(#pattern3025);fill-opacity:1;fill-rule:nonzero;stroke:none"
                   id="path3041" /></g></g></g></g></g><g
         id="g3043"><g
           id="g3045" /><g
           id="g3059"
           mask="url(#mask3051)"><g
             id="g3061" /><g
             id="g3081"><g
               clip-path="url(#clipPath3063)"
               id="g3083"><g
                 id="g3085"><path
                   d="m 0,0 797.3808,0 0,1064.2091 L 0,1064.2091 0,0 z"
                   style="fill:url(#pattern3071);fill-opacity:1;fill-rule:nonzero;stroke:none"
                   id="path3087" /></g></g></g></g></g><g
         id="g3089"><g
           id="g3091" /><g
           id="g3105"
           mask="url(#mask3097)"><g
             id="g3107" /><g
             id="g3127"><g
               clip-path="url(#clipPath3109)"
               id="g3129"><g
                 id="g3131"><path
                   d="m 0,0 797.3808,0 0,1064.2091 L 0,1064.2091 0,0 z"
                   style="fill:url(#pattern3117);fill-opacity:1;fill-rule:nonzero;stroke:none"
                   id="path3133" /></g></g></g></g></g><g
         id="g3135"><g
           id="g3137" /><g
           id="g3151"
           mask="url(#mask3143)"><g
             id="g3153" /><g
             id="g3173"><g
               clip-path="url(#clipPath3155)"
               id="g3175"><g
                 id="g3177"><path
                   d="m 0,0 797.3808,0 0,1064.2091 L 0,1064.2091 0,0 z"
                   style="fill:url(#pattern3163);fill-opacity:1;fill-rule:nonzero;stroke:none"
                   id="path3179" /></g></g></g></g></g><g
         id="g3181"><g
           id="g3183" /><g
           id="g3197"
           mask="url(#mask3189)"><g
             id="g3199" /><g
             id="g3219"><g
               clip-path="url(#clipPath3201)"
               id="g3221"><g
                 id="g3223"><path
                   d="m 0,0 797.3808,0 0,1064.2091 L 0,1064.2091 0,0 z"
                   style="fill:url(#pattern3209);fill-opacity:1;fill-rule:nonzero;stroke:none"
                   id="path3225" /></g></g></g></g></g><g
         id="g3227"><g
           id="g3229" /><g
           id="g3243"
           mask="url(#mask3235)"><g
             id="g3245" /><g
             id="g3265"><g
               clip-path="url(#clipPath3247)"
               id="g3267"><g
                 id="g3269"><path
                   d="m 0,0 797.3808,0 0,1064.2091 L 0,1064.2091 0,0 z"
                   style="fill:url(#pattern3255);fill-opacity:1;fill-rule:nonzero;stroke:none"
                   id="path3271" /></g></g></g></g></g><g
         id="g3273"><g
           id="g3275" /><g
           id="g3289"
           mask="url(#mask3281)"><g
             id="g3291" /><g
             id="g3311"><g
               clip-path="url(#clipPath3293)"
               id="g3313"><g
                 id="g3315"><path
                   d="m 0,0 797.3808,0 0,1064.2091 L 0,1064.2091 0,0 z"
                   style="fill:url(#pattern3301);fill-opacity:1;fill-rule:nonzero;stroke:none"
                   id="path3317" /></g></g></g></g></g><g
         id="g3319"><g
           id="g3321" /><g
           id="g3335"
           mask="url(#mask3327)"><g
             id="g3337" /><g
             id="g3357"><g
               clip-path="url(#clipPath3339)"
               id="g3359"><g
                 id="g3361"><path
                   d="m 0,0 797.3808,0 0,1064.2091 L 0,1064.2091 0,0 z"
                   style="fill:url(#pattern3347);fill-opacity:1;fill-rule:nonzero;stroke:none"
                   id="path3363" /></g></g></g></g></g><g
         id="g3365"><g
           id="g3367" /><g
           id="g3381"
           mask="url(#mask3373)"><g
             id="g3383" /><g
             id="g3403"><g
               clip-path="url(#clipPath3385)"
               id="g3405"><g
                 id="g3407"><path
                   d="m 0,0 797.3808,0 0,1064.2091 L 0,1064.2091 0,0 z"
                   style="fill:url(#pattern3393);fill-opacity:1;fill-rule:nonzero;stroke:none"
                   id="path3409" /></g></g></g></g></g><g
         id="g3411"><g
           id="g3413" /><g
           id="g3427"
           mask="url(#mask3419)"><g
             id="g3429" /><g
             id="g3449"><g
               clip-path="url(#clipPath3431)"
               id="g3451"><g
                 id="g3453"><path
                   d="m 0,0 797.3808,0 0,1064.2091 L 0,1064.2091 0,0 z"
                   style="fill:url(#pattern3439);fill-opacity:1;fill-rule:nonzero;stroke:none"
                   id="path3455" /></g></g></g></g></g><g
         id="g3457"><g
           id="g3459" /><g
           id="g3473"
           mask="url(#mask3465)"><g
             id="g3475" /><g
             id="g3495"><g
               clip-path="url(#clipPath3477)"
               id="g3497"><g
                 id="g3499"><path
                   d="m 0,0 797.3808,0 0,1064.2091 L 0,1064.2091 0,0 z"
                   style="fill:url(#pattern3485);fill-opacity:1;fill-rule:nonzero;stroke:none"
                   id="path3501" /></g></g></g></g></g><g
         id="g3503"
         transform="matrix(1,0,0,-1,0,1064.2091)"><path
           d="m -3304.488,724.258 18.172,0"
           style="fill:#000000;fill-opacity:1;fill-rule:nonzero;stroke:#000000;stroke-opacity:1;stroke-width:5.031179;stroke-linecap:round;stroke-linejoin:miter;stroke-miterlimit:4;stroke-dasharray:none"
           id="path3505" /></g><g
         id="g3507"
         transform="matrix(1,0,0,-1,0,1064.2091)"><path
           d="m -2146.105,739.707 18.171,0"
           style="fill:#000000;fill-opacity:1;fill-rule:nonzero;stroke:#000000;stroke-opacity:1;stroke-width:5.031179;stroke-linecap:round;stroke-linejoin:miter;stroke-miterlimit:4;stroke-dasharray:none"
           id="path3509" /></g><g
         id="g3511"
         transform="matrix(1,0,0,-1,0,1064.2091)"><path
           d="m -1574.441,696.27 18.171,0"
           style="fill:#000000;fill-opacity:1;fill-rule:nonzero;stroke:#000000;stroke-opacity:1;stroke-width:5.031179;stroke-linecap:round;stroke-linejoin:miter;stroke-miterlimit:4;stroke-dasharray:none"
           id="path3513" /></g><path
         d="m 0,1064.209 797.379,0 0,-1064.211 -797.379,0 0,1064.211 z"
         style="fill:#ffe400;fill-opacity:1;fill-rule:nonzero;stroke:none"
         id="path3515" /><path
         d="m 28.52,1035.69 740.34,0 0,-1007.168 -740.34,0 0,1007.168 z"
         style="fill:#56c4ad;fill-opacity:1;fill-rule:nonzero;stroke:none"
         id="path3517" /><path
         d="m 379.488,836.252 0,-4.887 2.446,-2.441 0,-11.184 -2.446,-2.441 0,-2.441 12.219,0 0,2.441 -2.445,2.441 0,11.184 2.445,2.441 0,4.887 -2.445,0 0,-2.441 -2.446,0 0,2.441 -2.441,0 0,-2.441 -2.441,0 0,2.441 -2.446,0 z"
         style="fill:#ffe400;fill-opacity:1;fill-rule:nonzero;stroke:none"
         id="path3519" /><path
         d="m 405.676,836.209 0,-4.887 2.441,-2.441 0,-11.184 -2.441,-2.441 0,-2.445 12.215,0 0,2.445 -2.442,2.441 0,11.184 2.442,2.441 0,4.887 -2.442,0 0,-2.441 -2.445,0 0,2.441 -2.442,0 0,-2.441 -2.445,0 0,2.441 -2.441,0 z"
         style="fill:#ffe400;fill-opacity:1;fill-rule:nonzero;stroke:none"
         id="path3521" /><path
         d="m 390.141,827.26 0,-9.125 -0.032,0 2.442,-2.442 0,-2.835 3.679,0 0,4.886 c 0,1.348 1.094,2.442 2.446,2.442 1.347,0 2.441,-1.094 2.441,-2.442 l 0,-4.886 3.649,0 0,2.835 2.445,2.442 0.031,0 0,9.125 -2.445,0 0,-2.442 -2.442,0 0,2.442 -2.445,0 0,-2.442 -2.441,0 0,2.442 -2.442,0 0,-2.442 -2.445,0 0,2.442 -2.441,0 z"
         style="fill:#ffe400;fill-opacity:1;fill-rule:nonzero;stroke:none"
         id="path3523" /><path
         d="m 398.676,819.307 c -0.867,0 -1.567,-0.699 -1.567,-1.563 l -0.015,-4.886 3.133,0 0.015,4.886 c 0,0.864 -0.703,1.563 -1.566,1.563 z"
         style="fill:#ffe400;fill-opacity:1;fill-rule:nonzero;stroke:none"
         id="path3525" /><path
         d="m 386.336,847.022 c 4.785,0 0,-1.551 4.785,-1.551 l 0,-4.785 c -4.785,0 0,1.55 -4.785,1.55 l 0,4.786 z"
         style="fill:#ffe400;fill-opacity:1;fill-rule:nonzero;stroke:none"
         id="path3527" /><path
         d="m 385.16,847.022 0.438,0.89 0.437,-0.89 0,-10.469 -0.875,0 0,10.469 z"
         style="fill:#ffe400;fill-opacity:1;fill-rule:nonzero;stroke:none"
         id="path3529" /><path
         d="m 412.52,846.975 c 4.785,0 0,-1.551 4.785,-1.551 l 0,-4.781 c -4.785,0 0,1.547 -4.785,1.547 l 0,4.785 z"
         style="fill:#ffe400;fill-opacity:1;fill-rule:nonzero;stroke:none"
         id="path3531" /><path
         d="m 411.344,846.975 0.441,0.894 0.438,-0.894 0,-10.465 -0.879,0 0,10.465 z"
         style="fill:#ffe400;fill-opacity:1;fill-rule:nonzero;stroke:none"
         id="path3533" /><path
         d="m 395.207,182.17 c -1.504,-1.992 -3.785,-6.574 -4.605,-9.289 -0.176,-0.594 -0.68,-1.348 -1.122,-1.656 -0.668,-0.473 -0.804,-1.141 -0.804,-3.965 0,-3.637 0.242,-4.043 2.168,-3.637 0.594,0.121 1.082,0.281 1.097,0.32 0.016,0.04 0.297,0.891 0.618,1.899 0.316,1.012 1.211,2.465 1.98,3.238 1.336,1.352 1.387,1.582 1.578,5.516 0.172,3.512 0.445,4.66 1.793,7.789 3.719,6.855 -0.25,2.973 -2.703,-0.215 z m 13.141,2.836 c -0.414,0.09 -1.422,-0.723 -2.891,-2.301 -1.926,-2.074 -4.027,-5.738 -5.699,-9.929 -0.438,-1.098 -0.93,-1.633 -1.5,-1.633 -0.969,0 -1.371,-0.793 -1.363,-2.731 0.007,-2.203 0.449,-3.258 1.445,-3.453 0.508,-0.098 1.047,-0.207 1.176,-0.238 0.132,-0.035 0.472,0.625 0.777,1.469 0.305,0.847 1.219,2.211 2.035,3.027 0.813,0.812 1.496,1.879 1.496,2.379 0,2.769 2.789,11.012 4.098,12.101 0.359,0.297 0.64,0.7 0.64,0.911 0,0.226 -0.07,0.371 -0.214,0.398 z m -19.727,-0.883 c -1.285,0 -8.387,-2.41 -11.105,-3.773 -1.434,-0.715 -2.246,-1.391 -2.168,-1.793 0.195,-1.012 10.195,-7.844 11.48,-7.844 0.395,0 0.524,0.969 0.484,3.563 -0.05,3.398 0.801,7.222 1.844,8.324 0.692,0.726 0.403,1.523 -0.535,1.523 z m 26.742,-2.969 c -0.304,0.063 -1.187,-0.582 -2.437,-1.847 -2.215,-2.235 -4.789,-6.676 -4.793,-8.27 0,-0.519 -0.34,-0.75 -1.071,-0.75 -1.273,0 -1.953,-1.129 -1.953,-3.187 0,-1.711 0.555,-2.301 2.383,-2.567 0.715,-0.105 1.336,-0.207 1.391,-0.242 0.058,-0.035 0.41,0.66 0.777,1.551 0.371,0.894 1.043,1.918 1.5,2.277 0.594,0.465 0.914,1.434 1.121,3.453 0.289,2.809 1.407,6.246 2.625,8.137 0.586,0.906 0.692,1.391 0.457,1.445 z m -42.105,-3.535 c -1.125,0 -4.164,-3.957 -5.942,-7.761 -2.218,-4.754 -2.777,-7.657 -1.66,-8.54 1.567,-1.234 5.403,-2.515 8.004,-2.675 0.426,-0.024 0.875,0.269 1.016,0.644 0.144,0.371 0.058,0.879 -0.211,1.149 -0.945,0.945 -0.5,1.566 1.363,1.847 1.477,0.223 2.449,0.039 4.578,-0.855 2.367,-0.996 2.832,-1.055 3.856,-0.563 0.636,0.305 1.601,1.387 2.168,2.411 1.375,2.496 1.054,5.3 -0.7,6.101 -0.937,0.426 -1.187,0.438 -1.335,-0.027 -0.102,-0.317 -0.907,-1.328 -1.793,-2.223 -2.473,-2.484 -4.329,-2.113 -6.293,1.231 -1.016,1.734 -1.129,2.304 -0.934,4.738 0.195,2.441 0.117,2.851 -0.723,3.64 -0.523,0.493 -1.16,0.883 -1.394,0.883 z m 47.965,-1.336 c -0.778,-0.148 -4.254,-4.168 -5.192,-6.078 -0.539,-1.097 -1.375,-2.097 -1.847,-2.222 -0.692,-0.18 -0.856,-0.582 -0.856,-2.114 0,-2.176 0.363,-2.691 1.953,-2.781 0.84,-0.051 1.246,0.207 1.551,1.016 0.23,0.597 0.789,1.57 1.258,2.168 0.496,0.629 0.859,1.746 0.859,2.648 0,0.859 0.59,2.816 1.309,4.336 0.722,1.523 1.199,2.871 1.074,3 -0.027,0.023 -0.059,0.035 -0.109,0.023 l 0,0.004 z m 10.574,-4.445 c -0.457,-0.008 -1.238,-0.168 -2.332,-0.48 -1.996,-0.579 -2.903,-1.153 -4.469,-2.84 -1.086,-1.168 -2.203,-2.141 -2.461,-2.141 -0.648,0 -0.992,-1.062 -0.992,-3.078 0,-1.367 0.211,-1.773 0.992,-2.086 1.43,-0.574 1.453,-0.57 2.035,0.828 0.293,0.707 1.035,1.828 1.657,2.492 0.621,0.66 1.796,2.086 2.597,3.157 0.805,1.07 1.973,2.367 2.598,2.89 1.008,0.848 1.129,1.27 0.375,1.258 z m -62.473,-2.969 c 0.535,-0.179 1.637,-2.851 1.258,-3.054 -0.164,-0.086 -0.891,0.156 -1.605,0.535 -0.715,0.383 -1.375,0.718 -1.473,0.777 -0.332,0.199 1.422,1.875 1.82,1.742 z m 26.285,-0.324 c -0.656,0 -1.632,-1.746 -2.222,-3.961 -0.477,-1.785 -0.438,-2.394 0.429,-5.406 1.215,-4.235 4.84,-11.059 5.512,-10.383 0.082,0.078 -0.34,1.77 -0.937,3.773 -1.442,4.852 -2.344,9.965 -2.356,13.274 -0.008,1.488 -0.195,2.703 -0.426,2.703 z m 7.68,-0.051 c -0.223,-0.035 -0.508,-0.277 -0.91,-0.722 -1.438,-1.59 -1.711,-3.274 -0.938,-5.996 1.141,-4 4.602,-10.176 5.301,-9.477 0.121,0.121 -0.195,1.355 -0.695,2.73 -1.012,2.789 -2.223,9.262 -2.223,11.832 0,1.153 -0.164,1.692 -0.535,1.633 z m 8.512,-1.019 -0.774,-1.149 c -1.05,-1.558 -1.343,-3.75 -0.777,-5.808 0.508,-1.844 3.027,-6.45 3.344,-6.129 0.105,0.105 -0.125,1.543 -0.508,3.183 -0.383,1.641 -0.828,4.52 -0.988,6.426 l -0.297,3.477 z m 8.086,-2.032 c -0.082,0.008 -0.168,-0.011 -0.27,-0.027 -0.469,-0.07 -1.137,-0.637 -1.5,-1.285 -0.597,-1.074 -0.597,-1.391 0.137,-3.453 0.695,-1.965 1.871,-4.254 2.191,-4.254 0.059,0 0.11,2.066 0.082,4.574 -0.039,3.738 -0.097,4.41 -0.64,4.445 z m 7.222,-2.089 c -0.535,-0.102 -1.117,-0.621 -1.55,-1.524 -0.856,-1.801 -0.504,-2.676 1.445,-3.64 1.351,-0.668 4.07,-1.274 4.578,-1.02 0.168,0.086 -0.383,1.082 -1.23,2.195 -0.852,1.114 -1.723,2.457 -1.93,3 -0.289,0.766 -0.774,1.094 -1.313,0.989 z m -47.64,-4.039 c -0.578,0.015 -0.828,-0.235 -1.364,-0.887 -0.867,-1.047 -2.71,-2.008 -3.91,-2.008 -0.312,0 -0.675,0.41 -0.8,0.887 -0.329,1.246 -2.274,1.172 -2.676,-0.11 -0.309,-0.964 -0.293,-0.957 -0.75,0.188 -0.336,0.832 -0.887,1.219 -1.957,1.418 -0.817,0.156 -1.547,0.211 -1.606,0.137 -0.054,-0.075 0.074,-0.715 0.27,-1.446 0.73,-2.703 9.008,-6.812 16.594,-8.218 3.597,-0.668 5.699,-0.747 5.996,-0.27 0.117,0.195 -0.954,1.48 -2.383,2.895 -2.93,2.894 -4.457,5.14 -4.121,6.019 0.16,0.414 -0.379,0.75 -1.766,1.098 -0.711,0.179 -1.18,0.285 -1.527,0.297 z"
         style="fill:#ffe400;fill-opacity:1;fill-rule:nonzero;stroke:none"
         id="path3535" /><text
         xml:space="preserve"
         style="font-size:15.82430077000000068px;font-style:normal;font-variant:normal;font-weight:normal;font-stretch:normal;text-indent:0;text-align:start;text-decoration:none;line-height:normal;letter-spacing:normal;word-spacing:normal;text-transform:none;direction:ltr;block-progression:tb;writing-mode:lr-tb;text-anchor:start;baseline-shift:baseline;color:#000000;fill:#ffe400;fill-opacity:1;fill-rule:nonzero;stroke:none;stroke-width:1.25000000000000000;marker:none;visibility:visible;display:inline;overflow:visible;enable-background:accumulate;font-family:Baskervald ADF Std;-inkscape-font-specification:BaskervaldADFStd-Regular"
         x="338.70609"
         y="-65.754517"
         id="text4426"
         transform="scale(1,-1)"><tspan
           sodipodi:role="line"
           id="tspan4428"
           x="338.70609"
           y="-65.754517">20a de junio, 2016</tspan></text>
<text
         transform="matrix(1,0,0,-1,332.06788,101.3379)"
         id="text3541"><tspan
           style="fill:#ffe400;fill-opacity:1;fill-rule:nonzero;stroke:none;font-family:Sancreek;font-variant:normal;font-weight:normal;font-size:28.83427000000000007;writing-mode:lr;-inkscape-font-specification:Sancreek"
           x="0 12.28339902 27.50789358 44.95262693 63.57956535 81.28380713 98.35369497 115.39474854"
           y="0"
           sodipodi:role="line"
           id="tspan3543">LEONARDO</tspan></text>
<path
         d="m 348.035,88.381 c 0,-1.258 -1.023,-2.281 -2.285,-2.281 -1.262,0 -2.285,1.023 -2.285,2.281 0,1.262 1.023,2.285 2.285,2.285 1.262,0 2.285,-1.023 2.285,-2.285 z"
         style="fill:#ffe400;fill-opacity:1;fill-rule:nonzero;stroke:none"
         id="path3545" /><path
         d="m 337.445,88.381 c 0,-1.258 -1.023,-2.281 -2.281,-2.281 -1.262,0 -2.285,1.023 -2.285,2.281 0,1.262 1.023,2.285 2.285,2.285 1.258,0 2.281,-1.023 2.281,-2.285 z"
         style="fill:#ffe400;fill-opacity:1;fill-rule:nonzero;stroke:none"
         id="path3547" /><path
         d="m 326.859,88.381 c 0,-1.258 -1.023,-2.281 -2.285,-2.281 -1.262,0 -2.285,1.023 -2.285,2.281 0,1.262 1.023,2.285 2.285,2.285 1.262,0 2.285,-1.023 2.285,-2.285 z"
         style="fill:#ffe400;fill-opacity:1;fill-rule:nonzero;stroke:none"
         id="path3549" /><path
         d="m 316.27,88.381 c 0,-1.258 -1.024,-2.281 -2.286,-2.281 -1.257,0 -2.281,1.023 -2.281,2.281 0,1.262 1.024,2.285 2.281,2.285 1.262,0 2.286,-1.023 2.286,-2.285 z"
         style="fill:#ffe400;fill-opacity:1;fill-rule:nonzero;stroke:none"
         id="path3551" /><path
         d="m 305.684,88.381 c 0,-1.258 -1.024,-2.281 -2.286,-2.281 -1.261,0 -2.285,1.023 -2.285,2.281 0,1.262 1.024,2.285 2.285,2.285 1.262,0 2.286,-1.023 2.286,-2.285 z"
         style="fill:#ffe400;fill-opacity:1;fill-rule:nonzero;stroke:none"
         id="path3553" /><path
         d="m 390.387,88.381 c 0,-1.258 -1.024,-2.281 -2.285,-2.281 -1.262,0 -2.282,1.023 -2.282,2.281 0,1.262 1.02,2.285 2.282,2.285 1.261,0 2.285,-1.023 2.285,-2.285 z"
         style="fill:#ffe400;fill-opacity:1;fill-rule:nonzero;stroke:none"
         id="path3555" /><path
         d="m 379.797,88.381 c 0,-1.258 -1.02,-2.281 -2.281,-2.281 -1.262,0 -2.286,1.023 -2.286,2.281 0,1.262 1.024,2.285 2.286,2.285 1.261,0 2.281,-1.023 2.281,-2.285 z"
         style="fill:#ffe400;fill-opacity:1;fill-rule:nonzero;stroke:none"
         id="path3557" /><path
         d="m 369.211,88.381 c 0,-1.258 -1.023,-2.281 -2.285,-2.281 -1.262,0 -2.281,1.023 -2.281,2.281 0,1.262 1.019,2.285 2.281,2.285 1.262,0 2.285,-1.023 2.285,-2.285 z"
         style="fill:#ffe400;fill-opacity:1;fill-rule:nonzero;stroke:none"
         id="path3559" /><path
         d="m 358.621,88.381 c 0,-1.258 -1.019,-2.281 -2.281,-2.281 -1.262,0 -2.285,1.023 -2.285,2.281 0,1.262 1.023,2.285 2.285,2.285 1.262,0 2.281,-1.023 2.281,-2.285 z"
         style="fill:#ffe400;fill-opacity:1;fill-rule:nonzero;stroke:none"
         id="path3561" /><path
         d="m 432.738,88.381 c 0,-1.258 -1.023,-2.281 -2.285,-2.281 -1.258,0 -2.281,1.023 -2.281,2.281 0,1.262 1.023,2.285 2.281,2.285 1.262,0 2.285,-1.023 2.285,-2.285 z"
         style="fill:#ffe400;fill-opacity:1;fill-rule:nonzero;stroke:none"
         id="path3563" /><path
         d="m 422.152,88.381 c 0,-1.258 -1.023,-2.281 -2.285,-2.281 -1.262,0 -2.285,1.023 -2.285,2.281 0,1.262 1.023,2.285 2.285,2.285 1.262,0 2.285,-1.023 2.285,-2.285 z"
         style="fill:#ffe400;fill-opacity:1;fill-rule:nonzero;stroke:none"
         id="path3565" /><path
         d="m 411.562,88.381 c 0,-1.258 -1.023,-2.281 -2.285,-2.281 -1.257,0 -2.281,1.023 -2.281,2.281 0,1.262 1.024,2.285 2.281,2.285 1.262,0 2.285,-1.023 2.285,-2.285 z"
         style="fill:#ffe400;fill-opacity:1;fill-rule:nonzero;stroke:none"
         id="path3567" /><path
         d="m 400.973,88.381 c 0,-1.258 -1.02,-2.281 -2.282,-2.281 -1.261,0 -2.285,1.023 -2.285,2.281 0,1.262 1.024,2.285 2.285,2.285 1.262,0 2.282,-1.023 2.282,-2.285 z"
         style="fill:#ffe400;fill-opacity:1;fill-rule:nonzero;stroke:none"
         id="path3569" /><path
         d="m 475.09,88.381 c 0,-1.258 -1.02,-2.281 -2.281,-2.281 -1.262,0 -2.286,1.023 -2.286,2.281 0,1.262 1.024,2.285 2.286,2.285 1.261,0 2.281,-1.023 2.281,-2.285 z"
         style="fill:#ffe400;fill-opacity:1;fill-rule:nonzero;stroke:none"
         id="path3571" /><path
         d="m 464.504,88.381 c 0,-1.258 -1.024,-2.281 -2.285,-2.281 -1.262,0 -2.281,1.023 -2.281,2.281 0,1.262 1.019,2.285 2.281,2.285 1.261,0 2.285,-1.023 2.285,-2.285 z"
         style="fill:#ffe400;fill-opacity:1;fill-rule:nonzero;stroke:none"
         id="path3573" /><path
         d="m 453.914,88.381 c 0,-1.258 -1.023,-2.281 -2.281,-2.281 -1.262,0 -2.285,1.023 -2.285,2.281 0,1.262 1.023,2.285 2.285,2.285 1.258,0 2.281,-1.023 2.281,-2.285 z"
         style="fill:#ffe400;fill-opacity:1;fill-rule:nonzero;stroke:none"
         id="path3575" /><path
         d="m 443.328,88.381 c 0,-1.258 -1.023,-2.281 -2.285,-2.281 -1.262,0 -2.285,1.023 -2.285,2.281 0,1.262 1.023,2.285 2.285,2.285 1.262,0 2.285,-1.023 2.285,-2.285 z"
         style="fill:#ffe400;fill-opacity:1;fill-rule:nonzero;stroke:none"
         id="path3577" /><path
         d="m 496.266,88.381 c 0,-1.258 -1.02,-2.281 -2.282,-2.281 -1.261,0 -2.285,1.023 -2.285,2.281 0,1.262 1.024,2.285 2.285,2.285 1.262,0 2.282,-1.023 2.282,-2.285 z"
         style="fill:#ffe400;fill-opacity:1;fill-rule:nonzero;stroke:none"
         id="path3579" /><path
         d="m 485.68,88.381 c 0,-1.258 -1.024,-2.281 -2.285,-2.281 -1.262,0 -2.282,1.023 -2.282,2.281 0,1.262 1.02,2.285 2.282,2.285 1.261,0 2.285,-1.023 2.285,-2.285 z"
         style="fill:#ffe400;fill-opacity:1;fill-rule:nonzero;stroke:none"
         id="path3581" /><path
         d="m 475.09,88.381 c 0,-1.258 -1.02,-2.281 -2.281,-2.281 -1.262,0 -2.286,1.023 -2.286,2.281 0,1.262 1.024,2.285 2.286,2.285 1.261,0 2.281,-1.023 2.281,-2.285 z"
         style="fill:#ffe400;fill-opacity:1;fill-rule:nonzero;stroke:none"
         id="path3583" /><text
         transform="matrix(1,0,0,-1,136.66849,614.47386)"
         id="text3585"><tspan
           style="fill:#ffe400;fill-opacity:1;fill-rule:nonzero;stroke:none;font-family:Combustion Plain BRK;font-variant:normal;font-weight:normal;font-size:240.928613;writing-mode:lr;-inkscape-font-specification:CombustionPlainBRK"
           x="0 84.32501455 168.40910049 232.01425432 316.33926887 390.06342445 460.65550806"
           y="0"
           sodipodi:role="line"
           id="tspan3587">KASTELO</tspan></text>
<text
         transform="matrix(1,0,0,-1,222.18099,860.61064)"
         id="text3589"><tspan
           style="fill:#ffe400;fill-opacity:1;fill-rule:nonzero;stroke:none;font-family:Sawasdee;font-variant:normal;font-weight:normal;font-size:78.508704;writing-mode:lr;-inkscape-font-specification:Sawasdee"
           x="0 64.37713728 106.37929392 134.32839254 176.33054918 218.01867101 255.0747793 305.79140208"
           y="0"
           sodipodi:role="line"
           id="tspan3591">NE ESTAS</tspan></text>
<path
         d="m 398.691,973.861 c -24.421,0 -47.343,-3.511 -69.082,-20.101 l 16.567,-8.75 -2.649,-19.781 c 12.11,9.242 30.825,14.398 55.164,14.398 24.336,0 43.079,-5.156 55.188,-14.398 l -2.676,19.781 16.57,8.75 c -21.742,16.59 -44.664,20.101 -69.082,20.101 z"
         style="fill:#ffe400;fill-opacity:1;fill-rule:nonzero;stroke:none"
         id="path3593" /><path
         inkscape:connector-curvature="0"
         d="m 369.484,951.908 c -0.101,-0.332 -0.679,-3.136 -2.66,-4.07 -2.234,-1.051 -4.422,0.48 -5.519,2.809 -1.211,2.566 -1.09,5.183 0.605,5.984 1.672,0.785 3.102,-0.297 3.895,-1.793 l 4.215,1.984 -3.149,6.688 -3.699,-1.742 0.078,-1.571 c -0.344,0.18 -2.023,1 -4.379,-0.109 -3.086,-1.449 -5.629,-6.617 -3.078,-12.035 2.473,-5.25 7.301,-6.891 12.293,-4.539 3.082,1.453 4.801,4.16 5.57,6.679 l -4.172,1.715"
         style="fill:#56c4ad;fill-opacity:1;fill-rule:nonzero;stroke:none;color:#000000;marker:none;visibility:visible;display:inline;overflow:visible;enable-background:accumulate"
         id="path3595" /><path
         inkscape:connector-curvature="0"
         d="m 373.703,961.397 1.613,0.289 2,-11.118 -1.613,-0.289 0.613,-3.406 8.504,1.531 -0.613,3.407 -1.586,-0.285 -2.004,11.117 1.59,0.285 -0.609,3.383 -8.504,-1.535 0.609,-3.379"
         style="fill:#56c4ad;fill-opacity:1;fill-rule:nonzero;stroke:none;color:#000000;marker:none;visibility:visible;display:inline;overflow:visible;enable-background:accumulate"
         id="path3597" /><path
         inkscape:connector-curvature="0"
         d="m 392.906,967.358 -0.191,-6.766 3.824,-0.109 0.094,3.332 2.238,-0.063 -0.32,-11.293 -2.133,0.059 -0.098,-3.457 9.68,-0.274 0.098,3.457 -2.16,0.063 0.316,11.293 2.187,-0.063 -0.093,-3.332 3.824,-0.105 0.191,6.761 -17.457,0.497"
         style="fill:#56c4ad;fill-opacity:1;fill-rule:nonzero;stroke:none;color:#000000;marker:none;visibility:visible;display:inline;overflow:visible;enable-background:accumulate"
         id="path3599" /><path
         inkscape:connector-curvature="0"
         d="m 413.547,962.904 1.613,-0.296 -2.031,-11.11 -1.613,0.293 -0.625,-3.406 8.5,-1.551 0.625,3.402 -1.59,0.293 2.035,11.11 1.586,-0.289 0.617,3.379 -8.5,1.554 -0.617,-3.379"
         style="fill:#56c4ad;fill-opacity:1;fill-rule:nonzero;stroke:none;color:#000000;marker:none;visibility:visible;display:inline;overflow:visible;enable-background:accumulate"
         id="path3601" /><path
         inkscape:connector-curvature="0"
         d="m 428.91,942.772 c 5.289,-2.575 9.809,-0.786 12.387,4.504 2.566,5.261 1.574,10.003 -4.156,12.796 -4.844,2.36 -9.911,0.516 -12.375,-4.535 -2.852,-5.851 -0.746,-10.379 4.144,-12.765 m 1.789,3.675 c -1.496,0.731 -1.648,3.207 -0.156,6.274 1.414,2.898 3.402,4.48 4.816,3.762 1.801,-0.879 1.469,-3.524 0.09,-6.356 -1.414,-2.902 -3.273,-4.398 -4.75,-3.68"
         style="fill:#56c4ad;fill-opacity:1;fill-rule:nonzero;stroke:none;color:#000000;marker:none;visibility:visible;display:inline;overflow:visible;enable-background:accumulate"
         id="path3603" /><path
         inkscape:connector-curvature="0"
         d="m 354.961,965.916 -1.477,-5.523 2.762,-0.731 0.738,2.754 2.762,-0.734 0.738,2.754 -5.523,1.48 z"
         style="fill:#56c4ad;fill-opacity:1;fill-rule:nonzero;stroke:none;color:#000000;marker:none;visibility:visible;display:inline;overflow:visible;enable-background:accumulate"
         id="path3605" /><path
         inkscape:connector-curvature="0"
         d="m 335.992,942.045 c 0,-1.262 -1.019,-2.285 -2.281,-2.285 -1.262,0 -2.285,1.023 -2.285,2.285 0,1.262 1.023,2.285 2.285,2.285 1.262,0 2.281,-1.023 2.281,-2.285 z"
         style="fill:#ffe400;fill-opacity:1;fill-rule:nonzero;stroke:none;color:#000000;marker:none;visibility:visible;display:inline;overflow:visible;enable-background:accumulate"
         id="path3607" /><path
         d="m 325.406,942.045 c 0,-1.262 -1.023,-2.285 -2.285,-2.285 -1.262,0 -2.281,1.023 -2.281,2.285 0,1.262 1.019,2.285 2.281,2.285 1.262,0 2.285,-1.023 2.285,-2.285 z"
         style="fill:#ffe400;fill-opacity:1;fill-rule:nonzero;stroke:none"
         id="path3609" /><path
         d="m 314.816,942.045 c 0,-1.262 -1.023,-2.285 -2.281,-2.285 -1.262,0 -2.285,1.023 -2.285,2.285 0,1.262 1.023,2.285 2.285,2.285 1.258,0 2.281,-1.023 2.281,-2.285 z"
         style="fill:#ffe400;fill-opacity:1;fill-rule:nonzero;stroke:none"
         id="path3611" /><path
         d="m 304.23,942.045 c 0,-1.262 -1.023,-2.285 -2.285,-2.285 -1.261,0 -2.285,1.023 -2.285,2.285 0,1.262 1.024,2.285 2.285,2.285 1.262,0 2.285,-1.023 2.285,-2.285 z"
         style="fill:#ffe400;fill-opacity:1;fill-rule:nonzero;stroke:none"
         id="path3613" /><path
         d="m 293.641,942.045 c 0,-1.262 -1.024,-2.285 -2.286,-2.285 -1.257,0 -2.281,1.023 -2.281,2.285 0,1.262 1.024,2.285 2.281,2.285 1.262,0 2.286,-1.023 2.286,-2.285 z"
         style="fill:#ffe400;fill-opacity:1;fill-rule:nonzero;stroke:none"
         id="path3615" /><path
         d="m 508.309,942.045 c 0,-1.262 -1.024,-2.285 -2.286,-2.285 -1.261,0 -2.281,1.023 -2.281,2.285 0,1.262 1.02,2.285 2.281,2.285 1.262,0 2.286,-1.023 2.286,-2.285 z"
         style="fill:#ffe400;fill-opacity:1;fill-rule:nonzero;stroke:none"
         id="path3617" /><path
         d="m 497.719,942.045 c 0,-1.262 -1.02,-2.285 -2.281,-2.285 -1.262,0 -2.286,1.023 -2.286,2.285 0,1.262 1.024,2.285 2.286,2.285 1.261,0 2.281,-1.023 2.281,-2.285 z"
         style="fill:#ffe400;fill-opacity:1;fill-rule:nonzero;stroke:none"
         id="path3619" /><path
         d="m 487.133,942.045 c 0,-1.262 -1.024,-2.285 -2.285,-2.285 -1.262,0 -2.282,1.023 -2.282,2.285 0,1.262 1.02,2.285 2.282,2.285 1.261,0 2.285,-1.023 2.285,-2.285 z"
         style="fill:#ffe400;fill-opacity:1;fill-rule:nonzero;stroke:none"
         id="path3621" /><path
         d="m 476.543,942.045 c 0,-1.262 -1.02,-2.285 -2.281,-2.285 -1.262,0 -2.285,1.023 -2.285,2.285 0,1.262 1.023,2.285 2.285,2.285 1.261,0 2.281,-1.023 2.281,-2.285 z"
         style="fill:#ffe400;fill-opacity:1;fill-rule:nonzero;stroke:none"
         id="path3623" /><path
         d="m 465.957,942.045 c 0,-1.262 -1.023,-2.285 -2.285,-2.285 -1.262,0 -2.285,1.023 -2.285,2.285 0,1.262 1.023,2.285 2.285,2.285 1.262,0 2.285,-1.023 2.285,-2.285 z"
         style="fill:#ffe400;fill-opacity:1;fill-rule:nonzero;stroke:none"
         id="path3625" /><path
         d="m 235.953,823.283 c 0,-1.261 -1.023,-2.281 -2.285,-2.281 -1.262,0 -2.281,1.02 -2.281,2.281 0,1.262 1.019,2.285 2.281,2.285 1.262,0 2.285,-1.023 2.285,-2.285 z"
         style="fill:#ffe400;fill-opacity:1;fill-rule:nonzero;stroke:none"
         id="path3627" /><path
         d="m 225.363,823.283 c 0,-1.261 -1.019,-2.281 -2.281,-2.281 -1.262,0 -2.285,1.02 -2.285,2.281 0,1.262 1.023,2.285 2.285,2.285 1.262,0 2.281,-1.023 2.281,-2.285 z"
         style="fill:#ffe400;fill-opacity:1;fill-rule:nonzero;stroke:none"
         id="path3629" /><path
         d="m 214.777,823.283 c 0,-1.261 -1.023,-2.281 -2.285,-2.281 -1.262,0 -2.281,1.02 -2.281,2.281 0,1.262 1.019,2.285 2.281,2.285 1.262,0 2.285,-1.023 2.285,-2.285 z"
         style="fill:#ffe400;fill-opacity:1;fill-rule:nonzero;stroke:none"
         id="path3631" /><path
         d="m 204.188,823.283 c 0,-1.261 -1.02,-2.281 -2.282,-2.281 -1.261,0 -2.285,1.02 -2.285,2.281 0,1.262 1.024,2.285 2.285,2.285 1.262,0 2.282,-1.023 2.282,-2.285 z"
         style="fill:#ffe400;fill-opacity:1;fill-rule:nonzero;stroke:none"
         id="path3633" /><path
         d="m 193.602,823.283 c 0,-1.261 -1.024,-2.281 -2.286,-2.281 -1.261,0 -2.281,1.02 -2.281,2.281 0,1.262 1.02,2.285 2.281,2.285 1.262,0 2.286,-1.023 2.286,-2.285 z"
         style="fill:#ffe400;fill-opacity:1;fill-rule:nonzero;stroke:none"
         id="path3635" /><path
         d="m 278.305,823.283 c 0,-1.261 -1.024,-2.281 -2.285,-2.281 -1.258,0 -2.282,1.02 -2.282,2.281 0,1.262 1.024,2.285 2.282,2.285 1.261,0 2.285,-1.023 2.285,-2.285 z"
         style="fill:#ffe400;fill-opacity:1;fill-rule:nonzero;stroke:none"
         id="path3637" /><path
         d="m 267.719,823.283 c 0,-1.261 -1.024,-2.281 -2.285,-2.281 -1.262,0 -2.286,1.02 -2.286,2.281 0,1.262 1.024,2.285 2.286,2.285 1.261,0 2.285,-1.023 2.285,-2.285 z"
         style="fill:#ffe400;fill-opacity:1;fill-rule:nonzero;stroke:none"
         id="path3639" /><path
         d="m 257.129,823.283 c 0,-1.261 -1.024,-2.281 -2.285,-2.281 -1.262,0 -2.282,1.02 -2.282,2.281 0,1.262 1.02,2.285 2.282,2.285 1.261,0 2.285,-1.023 2.285,-2.285 z"
         style="fill:#ffe400;fill-opacity:1;fill-rule:nonzero;stroke:none"
         id="path3641" /><path
         d="m 246.539,823.283 c 0,-1.261 -1.019,-2.281 -2.281,-2.281 -1.262,0 -2.285,1.02 -2.285,2.281 0,1.262 1.023,2.285 2.285,2.285 1.262,0 2.281,-1.023 2.281,-2.285 z"
         style="fill:#ffe400;fill-opacity:1;fill-rule:nonzero;stroke:none"
         id="path3643" /><path
         d="m 320.656,823.283 c 0,-1.261 -1.019,-2.281 -2.281,-2.281 -1.262,0 -2.285,1.02 -2.285,2.281 0,1.262 1.023,2.285 2.285,2.285 1.262,0 2.281,-1.023 2.281,-2.285 z"
         style="fill:#ffe400;fill-opacity:1;fill-rule:nonzero;stroke:none"
         id="path3645" /><path
         d="m 310.07,823.283 c 0,-1.261 -1.023,-2.281 -2.285,-2.281 -1.262,0 -2.281,1.02 -2.281,2.281 0,1.262 1.019,2.285 2.281,2.285 1.262,0 2.285,-1.023 2.285,-2.285 z"
         style="fill:#ffe400;fill-opacity:1;fill-rule:nonzero;stroke:none"
         id="path3647" /><path
         d="m 299.48,823.283 c 0,-1.261 -1.023,-2.281 -2.281,-2.281 -1.261,0 -2.285,1.02 -2.285,2.281 0,1.262 1.024,2.285 2.285,2.285 1.258,0 2.281,-1.023 2.281,-2.285 z"
         style="fill:#ffe400;fill-opacity:1;fill-rule:nonzero;stroke:none"
         id="path3649" /><path
         d="m 288.895,823.283 c 0,-1.261 -1.024,-2.281 -2.286,-2.281 -1.261,0 -2.285,1.02 -2.285,2.281 0,1.262 1.024,2.285 2.285,2.285 1.262,0 2.286,-1.023 2.286,-2.285 z"
         style="fill:#ffe400;fill-opacity:1;fill-rule:nonzero;stroke:none"
         id="path3651" /><path
         d="m 363.012,823.283 c 0,-1.261 -1.024,-2.281 -2.285,-2.281 -1.262,0 -2.286,1.02 -2.286,2.281 0,1.262 1.024,2.285 2.286,2.285 1.261,0 2.285,-1.023 2.285,-2.285 z"
         style="fill:#ffe400;fill-opacity:1;fill-rule:nonzero;stroke:none"
         id="path3653" /><path
         d="m 352.422,823.283 c 0,-1.261 -1.024,-2.281 -2.285,-2.281 -1.262,0 -2.282,1.02 -2.282,2.281 0,1.262 1.02,2.285 2.282,2.285 1.261,0 2.285,-1.023 2.285,-2.285 z"
         style="fill:#ffe400;fill-opacity:1;fill-rule:nonzero;stroke:none"
         id="path3655" /><path
         d="m 341.832,823.283 c 0,-1.261 -1.02,-2.281 -2.281,-2.281 -1.262,0 -2.285,1.02 -2.285,2.281 0,1.262 1.023,2.285 2.285,2.285 1.261,0 2.281,-1.023 2.281,-2.285 z"
         style="fill:#ffe400;fill-opacity:1;fill-rule:nonzero;stroke:none"
         id="path3657" /><path
         d="m 331.246,823.283 c 0,-1.261 -1.023,-2.281 -2.285,-2.281 -1.262,0 -2.281,1.02 -2.281,2.281 0,1.262 1.019,2.285 2.281,2.285 1.262,0 2.285,-1.023 2.285,-2.285 z"
         style="fill:#ffe400;fill-opacity:1;fill-rule:nonzero;stroke:none"
         id="path3659" /><path
         d="m 373.598,823.283 c 0,-1.261 -1.024,-2.281 -2.286,-2.281 -1.257,0 -2.281,1.02 -2.281,2.281 0,1.262 1.024,2.285 2.281,2.285 1.262,0 2.286,-1.023 2.286,-2.285 z"
         style="fill:#ffe400;fill-opacity:1;fill-rule:nonzero;stroke:none"
         id="path3661" /><path
         d="m 363.012,823.283 c 0,-1.261 -1.024,-2.281 -2.285,-2.281 -1.262,0 -2.286,1.02 -2.286,2.281 0,1.262 1.024,2.285 2.286,2.285 1.261,0 2.285,-1.023 2.285,-2.285 z"
         style="fill:#ffe400;fill-opacity:1;fill-rule:nonzero;stroke:none"
         id="path3663" /><path
         d="m 438.938,823.283 c 0,-1.261 -1.02,-2.281 -2.282,-2.281 -1.261,0 -2.285,1.02 -2.285,2.281 0,1.262 1.024,2.285 2.285,2.285 1.262,0 2.282,-1.023 2.282,-2.285 z"
         style="fill:#ffe400;fill-opacity:1;fill-rule:nonzero;stroke:none"
         id="path3665" /><path
         d="m 428.352,823.283 c 0,-1.261 -1.024,-2.281 -2.286,-2.281 -1.261,0 -2.285,1.02 -2.285,2.281 0,1.262 1.024,2.285 2.285,2.285 1.262,0 2.286,-1.023 2.286,-2.285 z"
         style="fill:#ffe400;fill-opacity:1;fill-rule:nonzero;stroke:none"
         id="path3667" /><path
         d="m 481.289,823.283 c 0,-1.261 -1.019,-2.281 -2.281,-2.281 -1.262,0 -2.285,1.02 -2.285,2.281 0,1.262 1.023,2.285 2.285,2.285 1.262,0 2.281,-1.023 2.281,-2.285 z"
         style="fill:#ffe400;fill-opacity:1;fill-rule:nonzero;stroke:none"
         id="path3669" /><path
         d="m 470.703,823.283 c 0,-1.261 -1.023,-2.281 -2.285,-2.281 -1.262,0 -2.281,1.02 -2.281,2.281 0,1.262 1.019,2.285 2.281,2.285 1.262,0 2.285,-1.023 2.285,-2.285 z"
         style="fill:#ffe400;fill-opacity:1;fill-rule:nonzero;stroke:none"
         id="path3671" /><path
         d="m 460.113,823.283 c 0,-1.261 -1.019,-2.281 -2.281,-2.281 -1.262,0 -2.285,1.02 -2.285,2.281 0,1.262 1.023,2.285 2.285,2.285 1.262,0 2.281,-1.023 2.281,-2.285 z"
         style="fill:#ffe400;fill-opacity:1;fill-rule:nonzero;stroke:none"
         id="path3673" /><path
         d="m 449.527,823.283 c 0,-1.261 -1.023,-2.281 -2.285,-2.281 -1.262,0 -2.285,1.02 -2.285,2.281 0,1.262 1.023,2.285 2.285,2.285 1.262,0 2.285,-1.023 2.285,-2.285 z"
         style="fill:#ffe400;fill-opacity:1;fill-rule:nonzero;stroke:none"
         id="path3675" /><path
         d="m 523.645,823.283 c 0,-1.261 -1.024,-2.281 -2.286,-2.281 -1.261,0 -2.285,1.02 -2.285,2.281 0,1.262 1.024,2.285 2.285,2.285 1.262,0 2.286,-1.023 2.286,-2.285 z"
         style="fill:#ffe400;fill-opacity:1;fill-rule:nonzero;stroke:none"
         id="path3677" /><path
         d="m 513.055,823.283 c 0,-1.261 -1.024,-2.281 -2.282,-2.281 -1.261,0 -2.285,1.02 -2.285,2.281 0,1.262 1.024,2.285 2.285,2.285 1.258,0 2.282,-1.023 2.282,-2.285 z"
         style="fill:#ffe400;fill-opacity:1;fill-rule:nonzero;stroke:none"
         id="path3679" /><path
         d="m 502.469,823.283 c 0,-1.261 -1.024,-2.281 -2.285,-2.281 -1.262,0 -2.286,1.02 -2.286,2.281 0,1.262 1.024,2.285 2.286,2.285 1.261,0 2.285,-1.023 2.285,-2.285 z"
         style="fill:#ffe400;fill-opacity:1;fill-rule:nonzero;stroke:none"
         id="path3681" /><path
         d="m 491.879,823.283 c 0,-1.261 -1.024,-2.281 -2.285,-2.281 -1.258,0 -2.282,1.02 -2.282,2.281 0,1.262 1.024,2.285 2.282,2.285 1.261,0 2.285,-1.023 2.285,-2.285 z"
         style="fill:#ffe400;fill-opacity:1;fill-rule:nonzero;stroke:none"
         id="path3683" /><path
         d="m 565.996,823.283 c 0,-1.261 -1.023,-2.281 -2.285,-2.281 -1.262,0 -2.281,1.02 -2.281,2.281 0,1.262 1.019,2.285 2.281,2.285 1.262,0 2.285,-1.023 2.285,-2.285 z"
         style="fill:#ffe400;fill-opacity:1;fill-rule:nonzero;stroke:none"
         id="path3685" /><path
         d="m 555.406,823.283 c 0,-1.261 -1.019,-2.281 -2.281,-2.281 -1.262,0 -2.285,1.02 -2.285,2.281 0,1.262 1.023,2.285 2.285,2.285 1.262,0 2.281,-1.023 2.281,-2.285 z"
         style="fill:#ffe400;fill-opacity:1;fill-rule:nonzero;stroke:none"
         id="path3687" /><path
         d="m 544.82,823.283 c 0,-1.261 -1.023,-2.281 -2.285,-2.281 -1.262,0 -2.285,1.02 -2.285,2.281 0,1.262 1.023,2.285 2.285,2.285 1.262,0 2.285,-1.023 2.285,-2.285 z"
         style="fill:#ffe400;fill-opacity:1;fill-rule:nonzero;stroke:none"
         id="path3689" /><path
         d="m 534.23,823.283 c 0,-1.261 -1.019,-2.281 -2.281,-2.281 -1.261,0 -2.285,1.02 -2.285,2.281 0,1.262 1.024,2.285 2.285,2.285 1.262,0 2.281,-1.023 2.281,-2.285 z"
         style="fill:#ffe400;fill-opacity:1;fill-rule:nonzero;stroke:none"
         id="path3691" /><path
         d="m 608.348,823.283 c 0,-1.261 -1.024,-2.281 -2.282,-2.281 -1.261,0 -2.285,1.02 -2.285,2.281 0,1.262 1.024,2.285 2.285,2.285 1.258,0 2.282,-1.023 2.282,-2.285 z"
         style="fill:#ffe400;fill-opacity:1;fill-rule:nonzero;stroke:none"
         id="path3693" /><path
         d="m 597.758,823.283 c 0,-1.261 -1.02,-2.281 -2.281,-2.281 -1.262,0 -2.286,1.02 -2.286,2.281 0,1.262 1.024,2.285 2.286,2.285 1.261,0 2.281,-1.023 2.281,-2.285 z"
         style="fill:#ffe400;fill-opacity:1;fill-rule:nonzero;stroke:none"
         id="path3695" /><path
         d="m 587.172,823.283 c 0,-1.261 -1.024,-2.281 -2.285,-2.281 -1.258,0 -2.282,1.02 -2.282,2.281 0,1.262 1.024,2.285 2.282,2.285 1.261,0 2.285,-1.023 2.285,-2.285 z"
         style="fill:#ffe400;fill-opacity:1;fill-rule:nonzero;stroke:none"
         id="path3697" /><path
         d="m 576.582,823.283 c 0,-1.261 -1.02,-2.281 -2.281,-2.281 -1.262,0 -2.285,1.02 -2.285,2.281 0,1.262 1.023,2.285 2.285,2.285 1.261,0 2.281,-1.023 2.281,-2.285 z"
         style="fill:#ffe400;fill-opacity:1;fill-rule:nonzero;stroke:none"
         id="path3699" /><path
         d="m 231.566,467.744 c 0,-1.261 -1.023,-2.281 -2.285,-2.281 -1.261,0 -2.285,1.02 -2.285,2.281 0,1.262 1.024,2.285 2.285,2.285 1.262,0 2.285,-1.023 2.285,-2.285 z"
         style="fill:#ffe400;fill-opacity:1;fill-rule:nonzero;stroke:none"
         id="path3701" /><path
         d="m 220.977,467.744 c 0,-1.261 -1.024,-2.281 -2.286,-2.281 -1.257,0 -2.281,1.02 -2.281,2.281 0,1.262 1.024,2.285 2.281,2.285 1.262,0 2.286,-1.023 2.286,-2.285 z"
         style="fill:#ffe400;fill-opacity:1;fill-rule:nonzero;stroke:none"
         id="path3703" /><path
         d="m 210.391,467.744 c 0,-1.261 -1.024,-2.281 -2.286,-2.281 -1.261,0 -2.285,1.02 -2.285,2.281 0,1.262 1.024,2.285 2.285,2.285 1.262,0 2.286,-1.023 2.286,-2.285 z"
         style="fill:#ffe400;fill-opacity:1;fill-rule:nonzero;stroke:none"
         id="path3705" /><path
         d="m 199.801,467.744 c 0,-1.261 -1.024,-2.281 -2.285,-2.281 -1.262,0 -2.282,1.02 -2.282,2.281 0,1.262 1.02,2.285 2.282,2.285 1.261,0 2.285,-1.023 2.285,-2.285 z"
         style="fill:#ffe400;fill-opacity:1;fill-rule:nonzero;stroke:none"
         id="path3707" /><path
         d="m 189.211,467.744 c 0,-1.261 -1.02,-2.281 -2.281,-2.281 -1.262,0 -2.285,1.02 -2.285,2.281 0,1.262 1.023,2.285 2.285,2.285 1.261,0 2.281,-1.023 2.281,-2.285 z"
         style="fill:#ffe400;fill-opacity:1;fill-rule:nonzero;stroke:none"
         id="path3709" /><path
         d="m 273.918,467.744 c 0,-1.261 -1.023,-2.281 -2.285,-2.281 -1.262,0 -2.281,1.02 -2.281,2.281 0,1.262 1.019,2.285 2.281,2.285 1.262,0 2.285,-1.023 2.285,-2.285 z"
         style="fill:#ffe400;fill-opacity:1;fill-rule:nonzero;stroke:none"
         id="path3711" /><path
         d="m 263.328,467.744 c 0,-1.261 -1.019,-2.281 -2.281,-2.281 -1.262,0 -2.285,1.02 -2.285,2.281 0,1.262 1.023,2.285 2.285,2.285 1.262,0 2.281,-1.023 2.281,-2.285 z"
         style="fill:#ffe400;fill-opacity:1;fill-rule:nonzero;stroke:none"
         id="path3713" /><path
         d="m 252.742,467.744 c 0,-1.261 -1.023,-2.281 -2.285,-2.281 -1.262,0 -2.285,1.02 -2.285,2.281 0,1.262 1.023,2.285 2.285,2.285 1.262,0 2.285,-1.023 2.285,-2.285 z"
         style="fill:#ffe400;fill-opacity:1;fill-rule:nonzero;stroke:none"
         id="path3715" /><path
         d="m 242.152,467.744 c 0,-1.261 -1.023,-2.281 -2.281,-2.281 -1.262,0 -2.285,1.02 -2.285,2.281 0,1.262 1.023,2.285 2.285,2.285 1.258,0 2.281,-1.023 2.281,-2.285 z"
         style="fill:#ffe400;fill-opacity:1;fill-rule:nonzero;stroke:none"
         id="path3717" /><path
         d="m 316.27,467.744 c 0,-1.261 -1.024,-2.281 -2.286,-2.281 -1.257,0 -2.281,1.02 -2.281,2.281 0,1.262 1.024,2.285 2.281,2.285 1.262,0 2.286,-1.023 2.286,-2.285 z"
         style="fill:#ffe400;fill-opacity:1;fill-rule:nonzero;stroke:none"
         id="path3719" /><path
         d="m 305.684,467.744 c 0,-1.261 -1.024,-2.281 -2.286,-2.281 -1.261,0 -2.285,1.02 -2.285,2.281 0,1.262 1.024,2.285 2.285,2.285 1.262,0 2.286,-1.023 2.286,-2.285 z"
         style="fill:#ffe400;fill-opacity:1;fill-rule:nonzero;stroke:none"
         id="path3721" /><path
         d="m 295.094,467.744 c 0,-1.261 -1.024,-2.281 -2.285,-2.281 -1.262,0 -2.282,1.02 -2.282,2.281 0,1.262 1.02,2.285 2.282,2.285 1.261,0 2.285,-1.023 2.285,-2.285 z"
         style="fill:#ffe400;fill-opacity:1;fill-rule:nonzero;stroke:none"
         id="path3723" /><path
         d="m 284.504,467.744 c 0,-1.261 -1.02,-2.281 -2.281,-2.281 -1.262,0 -2.285,1.02 -2.285,2.281 0,1.262 1.023,2.285 2.285,2.285 1.261,0 2.281,-1.023 2.281,-2.285 z"
         style="fill:#ffe400;fill-opacity:1;fill-rule:nonzero;stroke:none"
         id="path3725" /><path
         d="m 358.621,467.744 c 0,-1.261 -1.019,-2.281 -2.281,-2.281 -1.262,0 -2.285,1.02 -2.285,2.281 0,1.262 1.023,2.285 2.285,2.285 1.262,0 2.281,-1.023 2.281,-2.285 z"
         style="fill:#ffe400;fill-opacity:1;fill-rule:nonzero;stroke:none"
         id="path3727" /><path
         d="m 348.035,467.744 c 0,-1.261 -1.023,-2.281 -2.285,-2.281 -1.262,0 -2.285,1.02 -2.285,2.281 0,1.262 1.023,2.285 2.285,2.285 1.262,0 2.285,-1.023 2.285,-2.285 z"
         style="fill:#ffe400;fill-opacity:1;fill-rule:nonzero;stroke:none"
         id="path3729" /><path
         d="m 337.445,467.744 c 0,-1.261 -1.023,-2.281 -2.281,-2.281 -1.262,0 -2.285,1.02 -2.285,2.281 0,1.262 1.023,2.285 2.285,2.285 1.258,0 2.281,-1.023 2.281,-2.285 z"
         style="fill:#ffe400;fill-opacity:1;fill-rule:nonzero;stroke:none"
         id="path3731" /><path
         d="m 326.859,467.744 c 0,-1.261 -1.023,-2.281 -2.285,-2.281 -1.262,0 -2.285,1.02 -2.285,2.281 0,1.262 1.023,2.285 2.285,2.285 1.262,0 2.285,-1.023 2.285,-2.285 z"
         style="fill:#ffe400;fill-opacity:1;fill-rule:nonzero;stroke:none"
         id="path3733" /><path
         d="m 400.973,467.744 c 0,-1.261 -1.02,-2.281 -2.282,-2.281 -1.261,0 -2.285,1.02 -2.285,2.281 0,1.262 1.024,2.285 2.285,2.285 1.262,0 2.282,-1.023 2.282,-2.285 z"
         style="fill:#ffe400;fill-opacity:1;fill-rule:nonzero;stroke:none"
         id="path3735" /><path
         d="m 390.387,467.744 c 0,-1.261 -1.024,-2.281 -2.285,-2.281 -1.262,0 -2.282,1.02 -2.282,2.281 0,1.262 1.02,2.285 2.282,2.285 1.261,0 2.285,-1.023 2.285,-2.285 z"
         style="fill:#ffe400;fill-opacity:1;fill-rule:nonzero;stroke:none"
         id="path3737" /><path
         d="m 379.797,467.744 c 0,-1.261 -1.02,-2.281 -2.281,-2.281 -1.262,0 -2.286,1.02 -2.286,2.281 0,1.262 1.024,2.285 2.286,2.285 1.261,0 2.281,-1.023 2.281,-2.285 z"
         style="fill:#ffe400;fill-opacity:1;fill-rule:nonzero;stroke:none"
         id="path3739" /><path
         d="m 369.211,467.744 c 0,-1.261 -1.023,-2.281 -2.285,-2.281 -1.262,0 -2.281,1.02 -2.281,2.281 0,1.262 1.019,2.285 2.281,2.285 1.262,0 2.285,-1.023 2.285,-2.285 z"
         style="fill:#ffe400;fill-opacity:1;fill-rule:nonzero;stroke:none"
         id="path3741" /><path
         d="m 358.621,467.744 c 0,-1.261 -1.019,-2.281 -2.281,-2.281 -1.262,0 -2.285,1.02 -2.285,2.281 0,1.262 1.023,2.285 2.285,2.285 1.262,0 2.281,-1.023 2.281,-2.285 z"
         style="fill:#ffe400;fill-opacity:1;fill-rule:nonzero;stroke:none"
         id="path3743" /><path
         d="m 443.328,467.744 c 0,-1.261 -1.023,-2.281 -2.285,-2.281 -1.262,0 -2.285,1.02 -2.285,2.281 0,1.262 1.023,2.285 2.285,2.285 1.262,0 2.285,-1.023 2.285,-2.285 z"
         style="fill:#ffe400;fill-opacity:1;fill-rule:nonzero;stroke:none"
         id="path3745" /><path
         d="m 432.738,467.744 c 0,-1.261 -1.023,-2.281 -2.285,-2.281 -1.258,0 -2.281,1.02 -2.281,2.281 0,1.262 1.023,2.285 2.281,2.285 1.262,0 2.285,-1.023 2.285,-2.285 z"
         style="fill:#ffe400;fill-opacity:1;fill-rule:nonzero;stroke:none"
         id="path3747" /><path
         d="m 422.152,467.744 c 0,-1.261 -1.023,-2.281 -2.285,-2.281 -1.262,0 -2.285,1.02 -2.285,2.281 0,1.262 1.023,2.285 2.285,2.285 1.262,0 2.285,-1.023 2.285,-2.285 z"
         style="fill:#ffe400;fill-opacity:1;fill-rule:nonzero;stroke:none"
         id="path3749" /><path
         d="m 411.562,467.744 c 0,-1.261 -1.023,-2.281 -2.285,-2.281 -1.257,0 -2.281,1.02 -2.281,2.281 0,1.262 1.024,2.285 2.281,2.285 1.262,0 2.285,-1.023 2.285,-2.285 z"
         style="fill:#ffe400;fill-opacity:1;fill-rule:nonzero;stroke:none"
         id="path3751" /><path
         d="m 485.68,467.744 c 0,-1.261 -1.024,-2.281 -2.285,-2.281 -1.262,0 -2.282,1.02 -2.282,2.281 0,1.262 1.02,2.285 2.282,2.285 1.261,0 2.285,-1.023 2.285,-2.285 z"
         style="fill:#ffe400;fill-opacity:1;fill-rule:nonzero;stroke:none"
         id="path3753" /><path
         d="m 475.09,467.744 c 0,-1.261 -1.02,-2.281 -2.281,-2.281 -1.262,0 -2.286,1.02 -2.286,2.281 0,1.262 1.024,2.285 2.286,2.285 1.261,0 2.281,-1.023 2.281,-2.285 z"
         style="fill:#ffe400;fill-opacity:1;fill-rule:nonzero;stroke:none"
         id="path3755" /><path
         d="m 464.504,467.744 c 0,-1.261 -1.024,-2.281 -2.285,-2.281 -1.262,0 -2.281,1.02 -2.281,2.281 0,1.262 1.019,2.285 2.281,2.285 1.261,0 2.285,-1.023 2.285,-2.285 z"
         style="fill:#ffe400;fill-opacity:1;fill-rule:nonzero;stroke:none"
         id="path3757" /><path
         d="m 453.914,467.744 c 0,-1.261 -1.023,-2.281 -2.281,-2.281 -1.262,0 -2.285,1.02 -2.285,2.281 0,1.262 1.023,2.285 2.285,2.285 1.258,0 2.281,-1.023 2.281,-2.285 z"
         style="fill:#ffe400;fill-opacity:1;fill-rule:nonzero;stroke:none"
         id="path3759" /><path
         d="m 528.031,467.744 c 0,-1.261 -1.023,-2.281 -2.285,-2.281 -1.258,0 -2.281,1.02 -2.281,2.281 0,1.262 1.023,2.285 2.281,2.285 1.262,0 2.285,-1.023 2.285,-2.285 z"
         style="fill:#ffe400;fill-opacity:1;fill-rule:nonzero;stroke:none"
         id="path3761" /><path
         d="m 517.445,467.744 c 0,-1.261 -1.023,-2.281 -2.285,-2.281 -1.262,0 -2.285,1.02 -2.285,2.281 0,1.262 1.023,2.285 2.285,2.285 1.262,0 2.285,-1.023 2.285,-2.285 z"
         style="fill:#ffe400;fill-opacity:1;fill-rule:nonzero;stroke:none"
         id="path3763" /><path
         d="m 506.855,467.744 c 0,-1.261 -1.023,-2.281 -2.285,-2.281 -1.261,0 -2.281,1.02 -2.281,2.281 0,1.262 1.02,2.285 2.281,2.285 1.262,0 2.285,-1.023 2.285,-2.285 z"
         style="fill:#ffe400;fill-opacity:1;fill-rule:nonzero;stroke:none"
         id="path3765" /><path
         d="m 496.266,467.744 c 0,-1.261 -1.02,-2.281 -2.282,-2.281 -1.261,0 -2.285,1.02 -2.285,2.281 0,1.262 1.024,2.285 2.285,2.285 1.262,0 2.282,-1.023 2.282,-2.285 z"
         style="fill:#ffe400;fill-opacity:1;fill-rule:nonzero;stroke:none"
         id="path3767" /><path
         d="m 570.383,467.744 c 0,-1.261 -1.02,-2.281 -2.281,-2.281 -1.262,0 -2.286,1.02 -2.286,2.281 0,1.262 1.024,2.285 2.286,2.285 1.261,0 2.281,-1.023 2.281,-2.285 z"
         style="fill:#ffe400;fill-opacity:1;fill-rule:nonzero;stroke:none"
         id="path3769" /><path
         d="m 559.797,467.744 c 0,-1.261 -1.024,-2.281 -2.285,-2.281 -1.262,0 -2.285,1.02 -2.285,2.281 0,1.262 1.023,2.285 2.285,2.285 1.261,0 2.285,-1.023 2.285,-2.285 z"
         style="fill:#ffe400;fill-opacity:1;fill-rule:nonzero;stroke:none"
         id="path3771" /><path
         d="m 549.207,467.744 c 0,-1.261 -1.023,-2.281 -2.281,-2.281 -1.262,0 -2.285,1.02 -2.285,2.281 0,1.262 1.023,2.285 2.285,2.285 1.258,0 2.281,-1.023 2.281,-2.285 z"
         style="fill:#ffe400;fill-opacity:1;fill-rule:nonzero;stroke:none"
         id="path3773" /><path
         d="m 538.621,467.744 c 0,-1.261 -1.023,-2.281 -2.285,-2.281 -1.262,0 -2.285,1.02 -2.285,2.281 0,1.262 1.023,2.285 2.285,2.285 1.262,0 2.285,-1.023 2.285,-2.285 z"
         style="fill:#ffe400;fill-opacity:1;fill-rule:nonzero;stroke:none"
         id="path3775" /><path
         d="m 612.738,467.744 c 0,-1.261 -1.023,-2.281 -2.285,-2.281 -1.262,0 -2.285,1.02 -2.285,2.281 0,1.262 1.023,2.285 2.285,2.285 1.262,0 2.285,-1.023 2.285,-2.285 z"
         style="fill:#ffe400;fill-opacity:1;fill-rule:nonzero;stroke:none"
         id="path3777" /><path
         d="m 602.148,467.744 c 0,-1.261 -1.023,-2.281 -2.285,-2.281 -1.261,0 -2.281,1.02 -2.281,2.281 0,1.262 1.02,2.285 2.281,2.285 1.262,0 2.285,-1.023 2.285,-2.285 z"
         style="fill:#ffe400;fill-opacity:1;fill-rule:nonzero;stroke:none"
         id="path3779" /><path
         d="m 591.559,467.744 c 0,-1.261 -1.02,-2.281 -2.282,-2.281 -1.261,0 -2.285,1.02 -2.285,2.281 0,1.262 1.024,2.285 2.285,2.285 1.262,0 2.282,-1.023 2.282,-2.285 z"
         style="fill:#ffe400;fill-opacity:1;fill-rule:nonzero;stroke:none"
         id="path3781" /><path
         d="m 580.973,467.744 c 0,-1.261 -1.024,-2.281 -2.285,-2.281 -1.262,0 -2.282,1.02 -2.282,2.281 0,1.262 1.02,2.285 2.282,2.285 1.261,0 2.285,-1.023 2.285,-2.285 z"
         style="fill:#ffe400;fill-opacity:1;fill-rule:nonzero;stroke:none"
         id="path3783" /><path
         d="m 302.609,371.869 -33.218,0 0,57.141 3.441,0 0,-53.695 29.777,0 0,-3.446"
         style="fill:#ffe400;fill-opacity:1;fill-rule:nonzero;stroke:none"
         id="path3785" /><path
         d="m 324.578,427.209 c 3.57,1.531 7.32,2.297 11.25,2.297 3.93,0 7.68,-0.766 11.254,-2.297 3.598,-1.527 6.684,-3.598 9.262,-6.199 2.601,-2.602 4.668,-5.703 6.199,-9.301 1.531,-3.598 2.297,-7.371 2.297,-11.328 0,-3.953 -0.766,-7.73 -2.297,-11.328 -1.531,-3.57 -3.598,-6.66 -6.199,-9.262 -2.578,-2.601 -5.664,-4.668 -9.262,-6.199 -3.574,-1.531 -7.324,-2.297 -11.254,-2.297 -3.93,0 -7.68,0.766 -11.25,2.297 -3.574,1.531 -6.648,3.598 -9.226,6.199 -2.575,2.602 -4.629,5.692 -6.161,9.262 -1.531,3.598 -2.296,7.375 -2.296,11.328 0,3.957 0.765,7.73 2.296,11.328 1.532,3.598 3.586,6.699 6.161,9.301 2.578,2.601 5.652,4.672 9.226,6.199 m -14.277,-26.828 c 0,-3.469 0.664,-6.785 1.992,-9.949 1.352,-3.164 3.164,-5.895 5.434,-8.192 2.269,-2.297 4.988,-4.132 8.152,-5.511 3.164,-1.352 6.48,-2.028 9.949,-2.028 3.496,0 6.824,0.676 9.988,2.028 3.164,1.379 5.883,3.214 8.153,5.511 2.273,2.297 4.082,5.028 5.437,8.192 1.352,3.164 2.028,6.48 2.028,9.949 0,4.672 -1.137,8.969 -3.407,12.898 -2.269,3.957 -5.382,7.082 -9.339,9.379 -3.93,2.293 -8.215,3.442 -12.86,3.442 -4.644,0 -8.93,-1.149 -12.859,-3.442 -3.903,-2.297 -6.989,-5.422 -9.262,-9.379 -2.269,-3.929 -3.406,-8.226 -3.406,-12.898"
         style="fill:#ffe400;fill-opacity:1;fill-rule:nonzero;stroke:none"
         id="path3787" /><path
         d="m 426.496,417.795 -2.758,-2.027 c -2.371,3.187 -5.355,5.703 -8.953,7.539 -3.574,1.863 -7.437,2.793 -11.597,2.793 -4.645,0 -8.93,-1.149 -12.86,-3.442 -3.902,-2.297 -6.992,-5.422 -9.262,-9.379 -2.269,-3.929 -3.406,-8.226 -3.406,-12.898 0,-3.469 0.664,-6.785 1.992,-9.949 1.352,-3.164 3.16,-5.895 5.434,-8.192 2.269,-2.297 4.988,-4.132 8.152,-5.511 3.164,-1.352 6.481,-2.028 9.95,-2.028 4.441,0 8.574,1.059 12.402,3.176 3.824,2.145 6.898,5.055 9.222,8.727 2.321,3.675 3.622,7.707 3.903,12.093 l -25.527,0 0,3.407 29.011,0 0,-1.723 c 0,-3.953 -0.765,-7.73 -2.297,-11.328 -1.531,-3.57 -3.597,-6.66 -6.199,-9.262 -2.578,-2.601 -5.664,-4.668 -9.262,-6.199 -3.574,-1.531 -7.324,-2.297 -11.253,-2.297 -3.93,0 -7.68,0.766 -11.25,2.297 -3.575,1.531 -6.649,3.598 -9.227,6.199 -2.574,2.602 -4.629,5.692 -6.16,9.262 -1.531,3.598 -2.297,7.375 -2.297,11.328 0,3.957 0.766,7.73 2.297,11.328 1.531,3.598 3.586,6.699 6.16,9.301 2.578,2.601 5.652,4.672 9.227,6.199 3.57,1.531 7.32,2.297 11.25,2.297 4.667,0 9.058,-1.047 13.164,-3.137 4.109,-2.093 7.492,-4.949 10.144,-8.574"
         style="fill:#ffe400;fill-opacity:1;fill-rule:nonzero;stroke:none"
         id="path3789" /><path
         d="m 450.836,393.033 23.039,0 -11.559,27.746 -11.48,-27.746 m 24.418,-3.445 -26.063,0 -7.273,-17.719 -3.672,0 23.957,57.828 24.035,-57.828 -3.676,0 -7.308,17.719"
         style="fill:#ffe400;fill-opacity:1;fill-rule:nonzero;stroke:none"
         id="path3791" /><path
         d="m 524.473,418.904 -3.254,-1.109 c -0.895,2.731 -2.371,4.797 -4.442,6.199 -2.039,1.407 -4.273,2.106 -6.695,2.106 -2.934,0 -5.332,-0.942 -7.195,-2.832 -1.836,-1.887 -2.758,-4.196 -2.754,-6.926 -0.004,-1.402 0.316,-2.68 0.953,-3.828 0.641,-1.149 1.496,-2.129 2.566,-2.946 1.071,-0.816 2.297,-1.582 3.672,-2.296 1.406,-0.692 2.871,-1.352 4.403,-1.993 1.558,-0.636 3.101,-1.312 4.632,-2.027 1.555,-0.687 3.024,-1.492 4.399,-2.41 1.406,-0.918 2.64,-1.941 3.715,-3.063 1.07,-1.121 1.925,-2.5 2.562,-4.132 0.641,-1.633 0.957,-3.446 0.957,-5.434 0,-3.316 -0.855,-6.289 -2.562,-8.918 -1.711,-2.629 -3.93,-4.633 -6.66,-6.008 -2.731,-1.379 -5.676,-2.07 -8.84,-2.07 -2.067,0 -4.047,0.332 -5.934,0.996 -1.887,0.664 -3.648,1.648 -5.281,2.949 -1.633,1.324 -3.024,3.086 -4.172,5.281 -1.148,2.192 -1.902,4.708 -2.258,7.54 l 3.406,0.421 c 0.637,-4.593 2.27,-8.027 4.899,-10.296 2.652,-2.247 5.765,-3.368 9.34,-3.368 2.523,0 4.886,0.524 7.078,1.571 2.195,1.07 3.992,2.652 5.398,4.742 1.43,2.121 2.141,4.543 2.141,7.273 0,1.711 -0.317,3.254 -0.957,4.633 -0.637,1.375 -1.492,2.535 -2.563,3.481 -1.07,0.945 -2.308,1.812 -3.711,2.601 -1.378,0.793 -2.847,1.508 -4.402,2.145 -1.531,0.664 -3.074,1.328 -4.633,1.992 -1.531,0.66 -2.996,1.402 -4.398,2.219 -1.379,0.816 -2.606,1.707 -3.676,2.679 -1.07,0.969 -1.926,2.157 -2.562,3.559 -0.641,1.43 -0.957,3.023 -0.957,4.781 0,3.676 1.25,6.801 3.75,9.379 2.5,2.602 5.714,3.902 9.644,3.902 3.063,0 5.934,-0.957 8.609,-2.871 2.707,-1.886 4.633,-4.527 5.782,-7.922"
         style="fill:#ffe400;fill-opacity:1;fill-rule:nonzero;stroke:none"
         id="path3793" /><path
         d="m 403.227,456.994 23.488,-23.488 -2.434,-2.438 -21.054,21.055 -21.055,-21.055 -2.438,2.438 23.493,23.488 z"
         style="fill:#ffe400;fill-opacity:1;fill-rule:nonzero;stroke:none"
         id="path3795" /><path
         d="m 419.777,335.873 c -1.261,-0.051 -2.261,-1.105 -2.211,-2.367 0.055,-1.262 1.133,-2.23 2.395,-2.18 1.258,0.051 2.23,1.106 2.18,2.364 -0.051,1.261 -1.106,2.234 -2.364,2.183"
         style="fill:#ffe400;fill-opacity:1;fill-rule:nonzero;stroke:none"
         id="path3797" /><path
         d="m 430.297,336.412 c -1.258,-0.07 -2.215,-1.136 -2.141,-2.398 0.071,-1.258 1.137,-2.215 2.399,-2.145 1.257,0.071 2.257,1.16 2.168,2.418 -0.09,1.258 -1.164,2.196 -2.426,2.125"
         style="fill:#ffe400;fill-opacity:1;fill-rule:nonzero;stroke:none"
         id="path3799" /><path
         d="m 440.801,337.162 c -1.254,-0.109 -2.16,-1.187 -2.071,-2.445 0.09,-1.258 1.208,-2.195 2.465,-2.086 1.254,0.105 2.176,1.203 2.071,2.461 -0.11,1.258 -1.207,2.18 -2.465,2.07"
         style="fill:#ffe400;fill-opacity:1;fill-rule:nonzero;stroke:none"
         id="path3801" /><path
         d="m 451.324,338.123 c -1.254,-0.129 -2.187,-1.242 -2.062,-2.496 0.129,-1.254 1.265,-2.16 2.519,-2.031 1.254,0.125 2.16,1.234 2.035,2.488 -0.125,1.258 -1.238,2.164 -2.492,2.039"
         style="fill:#ffe400;fill-opacity:1;fill-rule:nonzero;stroke:none"
         id="path3803" /><path
         d="m 461.805,339.264 c -1.254,-0.141 -2.145,-1.266 -2.004,-2.52 0.144,-1.25 1.269,-2.144 2.523,-2 1.25,0.145 2.16,1.282 1.996,2.532 -0.16,1.25 -1.265,2.132 -2.515,1.988"
         style="fill:#ffe400;fill-opacity:1;fill-rule:nonzero;stroke:none"
         id="path3805" /><path
         d="m 472.254,340.615 c -1.25,-0.179 -2.121,-1.32 -1.961,-2.57 0.164,-1.25 1.352,-2.113 2.602,-1.934 1.25,0.176 2.109,1.325 1.933,2.571 -0.18,1.25 -1.324,2.109 -2.574,1.933"
         style="fill:#ffe400;fill-opacity:1;fill-rule:nonzero;stroke:none"
         id="path3807" /><path
         d="m 482.664,342.193 c -1.246,-0.203 -2.086,-1.367 -1.883,-2.609 0.199,-1.246 1.364,-2.086 2.61,-1.883 1.246,0.203 2.109,1.367 1.906,2.614 -0.199,1.246 -1.391,2.078 -2.633,1.878"
         style="fill:#ffe400;fill-opacity:1;fill-rule:nonzero;stroke:none"
         id="path3809" /><path
         d="m 493.062,343.92 c -1.238,-0.23 -2.019,-1.398 -1.82,-2.641 0.203,-1.246 1.418,-2.062 2.66,-1.832 1.239,0.235 2.047,1.418 1.817,2.657 -0.235,1.242 -1.418,2.05 -2.657,1.816"
         style="fill:#ffe400;fill-opacity:1;fill-rule:nonzero;stroke:none"
         id="path3811" /><path
         d="m 503.48,345.873 c -1.242,-0.23 -2.078,-1.418 -1.843,-2.66 0.23,-1.238 1.441,-2.043 2.679,-1.812 1.243,0.234 2.071,1.464 1.809,2.699 -0.262,1.234 -1.406,2.008 -2.645,1.773"
         style="fill:#ffe400;fill-opacity:1;fill-rule:nonzero;stroke:none"
         id="path3813" /><path
         d="m 513.773,348.045 c -1.234,-0.262 -2.015,-1.465 -1.753,-2.699 0.257,-1.231 1.46,-2.016 2.695,-1.754 1.234,0.262 2.039,1.484 1.75,2.711 -0.289,1.23 -1.461,2.004 -2.692,1.742"
         style="fill:#ffe400;fill-opacity:1;fill-rule:nonzero;stroke:none"
         id="path3815" /><path
         d="m 524.047,350.424 c -1.227,-0.289 -2.008,-1.512 -1.719,-2.742 0.289,-1.227 1.535,-1.977 2.762,-1.688 1.226,0.289 2.004,1.528 1.691,2.746 -0.316,1.223 -1.504,1.973 -2.734,1.684"
         style="fill:#ffe400;fill-opacity:1;fill-rule:nonzero;stroke:none"
         id="path3817" /><path
         d="m 534.246,353.014 c -1.219,-0.313 -1.949,-1.547 -1.633,-2.77 0.313,-1.222 1.547,-1.949 2.77,-1.636 1.222,0.316 1.992,1.597 1.652,2.812 -0.34,1.215 -1.566,1.91 -2.789,1.594"
         style="fill:#ffe400;fill-opacity:1;fill-rule:nonzero;stroke:none"
         id="path3819" /><path
         d="m 544.363,355.861 c -1.207,-0.363 -1.867,-1.609 -1.527,-2.824 0.34,-1.215 1.629,-1.894 2.836,-1.535 1.207,0.363 1.887,1.625 1.523,2.832 -0.359,1.211 -1.621,1.891 -2.832,1.527"
         style="fill:#ffe400;fill-opacity:1;fill-rule:nonzero;stroke:none"
         id="path3821" /><path
         d="m 554.422,358.983 c -1.199,-0.387 -1.86,-1.661 -1.473,-2.864 0.383,-1.199 1.656,-1.855 2.86,-1.472 1.199,0.382 1.89,1.711 1.488,2.906 -0.406,1.195 -1.672,1.812 -2.875,1.43"
         style="fill:#ffe400;fill-opacity:1;fill-rule:nonzero;stroke:none"
         id="path3823" /><path
         d="m 564.34,362.475 c -0.149,-0.051 -0.289,-0.102 -0.422,-0.18 -0.906,-0.551 -1.32,-1.691 -0.945,-2.73 0.425,-1.188 1.722,-1.797 2.91,-1.368 1.187,0.426 1.797,1.727 1.367,2.911 -0.426,1.187 -1.727,1.796 -2.91,1.367"
         style="fill:#ffe400;fill-opacity:1;fill-rule:nonzero;stroke:none"
         id="path3825" /><path
         d="m 377.422,331.326 c 1.258,-0.05 2.34,0.918 2.39,2.18 0.051,1.258 -0.945,2.316 -2.207,2.367 -1.261,0.051 -2.312,-0.922 -2.363,-2.183 -0.054,-1.258 0.918,-2.313 2.18,-2.364"
         style="fill:#ffe400;fill-opacity:1;fill-rule:nonzero;stroke:none"
         id="path3827" /><path
         d="m 366.828,331.869 c 1.258,-0.07 2.328,0.887 2.399,2.145 0.07,1.258 -0.883,2.328 -2.145,2.398 -1.258,0.071 -2.332,-0.867 -2.422,-2.125 -0.09,-1.258 0.91,-2.347 2.168,-2.418"
         style="fill:#ffe400;fill-opacity:1;fill-rule:nonzero;stroke:none"
         id="path3829" /><path
         d="m 356.188,332.631 c 1.257,-0.109 2.374,0.828 2.464,2.086 0.09,1.258 -0.816,2.336 -2.074,2.445 -1.254,0.11 -2.351,-0.812 -2.461,-2.07 -0.109,-1.258 0.813,-2.356 2.071,-2.461"
         style="fill:#ffe400;fill-opacity:1;fill-rule:nonzero;stroke:none"
         id="path3831" /><path
         d="m 345.602,333.596 c 1.253,-0.129 2.39,0.777 2.515,2.031 0.129,1.254 -0.805,2.367 -2.062,2.496 -1.254,0.125 -2.364,-0.781 -2.489,-2.035 -0.128,-1.258 0.778,-2.367 2.036,-2.492"
         style="fill:#ffe400;fill-opacity:1;fill-rule:nonzero;stroke:none"
         id="path3833" /><path
         d="m 335.059,334.744 c 1.253,-0.144 2.375,0.75 2.519,2 0.145,1.254 -0.746,2.379 -2,2.52 -1.254,0.144 -2.355,-0.738 -2.519,-1.988 -0.161,-1.25 0.746,-2.387 2,-2.532"
         style="fill:#ffe400;fill-opacity:1;fill-rule:nonzero;stroke:none"
         id="path3835" /><path
         d="m 324.488,336.111 c 1.246,-0.179 2.438,0.684 2.598,1.934 0.164,1.25 -0.711,2.391 -1.957,2.57 -1.25,0.176 -2.395,-0.683 -2.574,-1.933 -0.176,-1.246 0.683,-2.395 1.933,-2.571"
         style="fill:#ffe400;fill-opacity:1;fill-rule:nonzero;stroke:none"
         id="path3837" /><path
         d="m 313.992,337.701 c 1.242,-0.203 2.406,0.637 2.61,1.883 0.199,1.242 -0.637,2.406 -1.883,2.609 -1.246,0.2 -2.434,-0.632 -2.637,-1.878 -0.199,-1.247 0.664,-2.411 1.91,-2.614"
         style="fill:#ffe400;fill-opacity:1;fill-rule:nonzero;stroke:none"
         id="path3839" /><path
         d="m 303.48,339.447 c 1.243,-0.23 2.458,0.586 2.657,1.832 0.203,1.243 -0.578,2.411 -1.817,2.641 -1.242,0.234 -2.422,-0.574 -2.656,-1.816 -0.23,-1.239 0.578,-2.422 1.816,-2.657"
         style="fill:#ffe400;fill-opacity:1;fill-rule:nonzero;stroke:none"
         id="path3841" /><path
         d="m 293.062,341.401 c 1.243,-0.231 2.45,0.574 2.684,1.812 0.231,1.242 -0.605,2.43 -1.844,2.66 -1.238,0.235 -2.386,-0.539 -2.648,-1.773 -0.262,-1.235 0.57,-2.465 1.808,-2.699"
         style="fill:#ffe400;fill-opacity:1;fill-rule:nonzero;stroke:none"
         id="path3843" /><path
         d="m 282.668,343.592 c 1.234,-0.262 2.434,0.519 2.695,1.754 0.262,1.234 -0.519,2.437 -1.754,2.699 -1.234,0.262 -2.406,-0.512 -2.695,-1.742 -0.289,-1.227 0.52,-2.449 1.754,-2.711"
         style="fill:#ffe400;fill-opacity:1;fill-rule:nonzero;stroke:none"
         id="path3845" /><path
         d="m 272.293,345.994 c 1.227,-0.289 2.473,0.461 2.762,1.688 0.289,1.226 -0.493,2.453 -1.723,2.742 -1.227,0.289 -2.418,-0.461 -2.73,-1.684 -0.317,-1.218 0.46,-2.457 1.691,-2.746"
         style="fill:#ffe400;fill-opacity:1;fill-rule:nonzero;stroke:none"
         id="path3847" /><path
         d="m 262,348.608 c 1.219,-0.313 2.453,0.414 2.77,1.636 0.312,1.223 -0.415,2.457 -1.637,2.77 -1.219,0.316 -2.449,-0.379 -2.785,-1.594 -0.34,-1.215 0.429,-2.496 1.652,-2.812"
         style="fill:#ffe400;fill-opacity:1;fill-rule:nonzero;stroke:none"
         id="path3849" /><path
         d="m 251.711,351.502 c 1.207,-0.359 2.496,0.32 2.836,1.535 0.34,1.215 -0.32,2.461 -1.531,2.824 -1.207,0.364 -2.469,-0.316 -2.832,-1.523 -0.36,-1.211 0.32,-2.473 1.527,-2.836"
         style="fill:#ffe400;fill-opacity:1;fill-rule:nonzero;stroke:none"
         id="path3851" /><path
         d="m 241.574,354.647 c 1.199,-0.383 2.477,0.273 2.86,1.472 0.382,1.203 -0.274,2.477 -1.473,2.864 -1.203,0.382 -2.469,-0.235 -2.875,-1.43 -0.406,-1.195 0.285,-2.524 1.488,-2.906"
         style="fill:#ffe400;fill-opacity:1;fill-rule:nonzero;stroke:none"
         id="path3853" /><path
         d="m 231.5,358.197 c 0.148,-0.054 0.285,-0.105 0.434,-0.129 1.05,-0.156 2.101,0.458 2.476,1.497 0.43,1.183 -0.18,2.484 -1.367,2.91 -1.188,0.429 -2.484,-0.18 -2.914,-1.367 -0.426,-1.184 0.183,-2.485 1.371,-2.911"
         style="fill:#ffe400;fill-opacity:1;fill-rule:nonzero;stroke:none"
         id="path3855" /><path
         style="fill:#ffe400;fill-opacity:1;fill-rule:nonzero;stroke:none"
         d="M 490.34375 897.96875 C 485.09375 897.96875 480.84375 902.24625 480.84375 907.5 C 480.84375 911.34232 483.13118 914.62736 486.40625 916.125 L 486.40625 921.65625 C 485.0097 921.96665 483.84375 923.30516 483.84375 924.75 C 483.84375 926.405 485.345 927.90625 487 927.90625 L 509.71875 927.90625 C 511.36875 927.90625 512.875 926.405 512.875 924.75 C 512.875 923.30516 511.73719 921.96665 510.34375 921.65625 L 510.34375 916.125 C 513.61869 914.62736 515.90625 911.34232 515.90625 907.5 C 515.90625 902.24625 511.655 897.96875 506.40625 897.96875 C 503.02222 897.96875 500.06084 899.77626 498.375 902.4375 C 496.69068 899.76863 493.73358 897.96875 490.34375 897.96875 z M 498.375 903.5625 C 500.11875 903.5625 501.53125 904.975 501.53125 906.71875 C 501.53125 908.46125 498.375 914.59375 498.375 914.59375 C 498.375 914.59375 495.21875 908.46125 495.21875 906.71875 C 495.21875 904.975 496.6325 903.5625 498.375 903.5625 z M 488.1875 904.03125 C 493.52875 904.0225 494.25375 911.88375 490.875 914.125 C 490.5725 908.42125 487.41875 910.09 486.1875 908.25 C 484.83 906.21875 486.405 904.03625 488.1875 904.03125 z M 508.5625 904.03125 C 510.345 904.03625 511.91875 906.21875 510.5625 908.25 C 509.33125 910.09 506.14125 908.42125 505.84375 914.125 C 502.465 911.88375 503.22 904.0225 508.5625 904.03125 z M 500 914.46875 C 500.57141 914.99539 501.18788 915.46856 501.875 915.84375 L 501.875 921.59375 L 500 921.59375 L 500 914.46875 z M 496.71875 914.5 L 496.71875 921.59375 L 494.84375 921.59375 L 494.84375 915.875 C 495.53144 915.50381 496.14623 915.02345 496.71875 914.5 z M 491.5625 916.90625 L 491.5625 921.59375 L 489.6875 921.59375 L 489.6875 916.96875 C 489.90571 916.9837 490.12171 917 490.34375 917 C 490.75694 917 491.16369 916.95723 491.5625 916.90625 z M 505.1875 916.90625 C 505.58588 916.95742 505.99376 917 506.40625 917 C 506.6177 917 506.82325 916.98232 507.03125 916.96875 L 507.03125 921.59375 L 505.1875 921.59375 L 505.1875 916.90625 z "
         transform="matrix(0.8,0,0,-0.8,0,1064.2091)"
         id="path3857" /><path
         d="m 401.367,346.861 c 0,-1.476 -1.199,-2.671 -2.676,-2.671 -1.476,0 -2.675,1.195 -2.675,2.671 0,1.477 1.199,2.676 2.675,2.676 1.477,0 2.676,-1.199 2.676,-2.676 z"
         style="fill:#ffe400;fill-opacity:1;fill-rule:nonzero;stroke:none"
         id="path3873" /><path
         d="m 395.793,346.666 c 0,-0.441 -0.359,-0.801 -0.805,-0.801 -0.441,0 -0.8,0.36 -0.8,0.801 0,0.445 0.359,0.801 0.8,0.801 0.446,0 0.805,-0.356 0.805,-0.801 z"
         style="fill:#ffe400;fill-opacity:1;fill-rule:nonzero;stroke:none"
         id="path3875" /><path
         d="m 393.949,346.791 c 0,-0.312 -0.254,-0.566 -0.566,-0.566 -0.313,0 -0.563,0.254 -0.563,0.566 0,0.313 0.25,0.563 0.563,0.563 0.312,0 0.566,-0.25 0.566,-0.563 z"
         style="fill:#ffe400;fill-opacity:1;fill-rule:nonzero;stroke:none"
         id="path3877" /><path
         d="m 401.59,346.666 c 0,-0.441 0.359,-0.801 0.801,-0.801 0.445,0 0.804,0.36 0.804,0.801 0,0.445 -0.359,0.801 -0.804,0.801 -0.442,0 -0.801,-0.356 -0.801,-0.801 z"
         style="fill:#ffe400;fill-opacity:1;fill-rule:nonzero;stroke:none"
         id="path3879" /><path
         d="m 403.434,346.791 c 0,-0.312 0.254,-0.566 0.562,-0.566 0.313,0 0.566,0.254 0.566,0.566 0,0.313 -0.253,0.563 -0.566,0.563 -0.308,0 -0.562,-0.25 -0.562,-0.563 z"
         style="fill:#ffe400;fill-opacity:1;fill-rule:nonzero;stroke:none"
         id="path3881" /><path
         d="m 196.84,578.893 18.894,-32.575 -18.894,-32.601 47.961,0 0,58.137 94.672,0 0,7.039 -142.633,0 z"
         style="fill:#ffe400;fill-opacity:1;fill-rule:nonzero;stroke:none"
         id="path3905" /><path
         d="m 457.91,578.893 0,-7.039 94.668,0 0,-58.137 47.965,0 -18.898,32.601 18.898,32.575 -142.633,0 z"
         style="fill:#ffe400;fill-opacity:1;fill-rule:nonzero;stroke:none"
         id="path3907" /><path
         d="m 253.367,563.287 0,-75.586 290.645,0 0,75.586 -290.645,0 z"
         style="fill:#ffe400;fill-opacity:1;fill-rule:nonzero;stroke:none"
         id="path3909" /><g
         id="g3575"
         style="fill:#56c4ad;color:#000000;fill-opacity:1;fill-rule:nonzero;stroke:none;marker:none;visibility:visible;display:inline;overflow:visible;enable-background:accumulate"><path
           inkscape:connector-curvature="0"
           id="path3915"
           style="fill:#56c4ad;fill-opacity:1;fill-rule:nonzero;stroke:none;color:#000000;marker:none;visibility:visible;display:inline;overflow:visible;enable-background:accumulate"
           d="m 398.13354,557.47342 -7.457,-7.672 3.848,-3.718 3.718,3.824 3.844,-3.719 3.719,3.828 -7.672,7.457 z" /><text
           transform="scale(1,-1)"
           id="text3451"
           y="-508.56329"
           x="268.52533"
           style="font-size:48.30442047000000372px;font-style:normal;font-variant:normal;font-weight:normal;font-stretch:normal;text-indent:0;text-align:start;text-decoration:none;line-height:normal;letter-spacing:normal;word-spacing:normal;text-transform:none;direction:ltr;block-progression:tb;writing-mode:lr-tb;text-anchor:start;baseline-shift:baseline;color:#000000;fill:#56c4ad;fill-opacity:1;fill-rule:nonzero;stroke:none;stroke-width:1.25000000000000000;marker:none;visibility:visible;display:inline;overflow:visible;enable-background:accumulate;font-family:ChunkFive;-inkscape-font-specification:ChunkFive"
           xml:space="preserve"><tspan
             y="-508.56329"
             x="268.52533"
             id="tspan3453"
             sodipodi:role="line">SED CI TIE</tspan></text>
</g><text
         xml:space="preserve"
         style="font-size:40px;font-style:normal;font-variant:normal;font-weight:normal;font-stretch:normal;line-height:125%;letter-spacing:0px;word-spacing:0px;fill:#000000;fill-opacity:1;stroke:none;font-family:sans;-inkscape-font-specification:sans"
         x="1073.8254"
         y="987.27832"
         id="text3474"
         sodipodi:linespacing="125%"
         transform="matrix(0.8,0,0,-0.8,0,1064.2091)"><tspan
           sodipodi:role="line"
           id="tspan3476"
           x="1073.8254"
           y="987.27832" /></text>
<g
         id="g3564"
         transform="translate(-23.341074,0)"><path
           d="m 252.44336,298.5984 -2.14635,-9.31113 3.9803,-0.91753 -7.14361,-30.98972 -3.98029,0.91754 -2.1628,-9.38221 22.88693,-5.27581 2.16275,9.3822 -4.33572,0.99946 2.53955,11.01698 5.40191,-1.24522 c 10.16405,-2.34298 19.77471,0.38196 21.93746,9.76419 1.8678,8.1028 0.3789,15.93147 -16.11108,19.73266 l -23.02905,5.30859 m 16.42122,-13.51642 3.55389,-0.81922 c 4.12246,-0.9503 6.08588,-3.79824 5.11917,-7.99179 -0.86836,-3.76709 -4.20305,-5.24405 -8.32552,-4.29374 l -3.19846,0.7373 2.85092,12.36745"
           style="font-size:72.94132233px;font-style:normal;font-variant:normal;font-weight:normal;font-stretch:normal;text-indent:0;text-align:start;text-decoration:none;line-height:normal;letter-spacing:normal;word-spacing:normal;text-transform:none;direction:ltr;block-progression:tb;writing-mode:lr-tb;text-anchor:start;color:#000000;fill:#ffe400;fill-opacity:1;fill-rule:nonzero;stroke:none;stroke-width:1.25;marker:none;visibility:visible;font-family:ChunkFive;-inkscape-font-specification:ChunkFive"
           id="path3540"
           inkscape:connector-curvature="0" /><path
           d="m 292.90575,289.4073 -1.17464,-9.48284 4.05369,-0.50214 -3.90956,-31.5612 -4.0538,0.50215 -1.18362,-9.55522 23.3814,-2.89632 1.18363,9.55522 -4.41569,0.54699 1.3899,11.22014 c 6.44254,-0.79805 7.04155,-2.48923 6.2255,-9.07654 -1.04916,-8.46939 2.89262,-14.02909 12.37548,-15.20376 8.03507,-0.99532 11.25911,4.26472 12.00334,10.27292 l 0.49316,3.98134 -4.85001,0.60079 -0.29585,-2.3888 c -0.17935,-1.44777 -0.86604,-2.24469 -1.95193,-2.11019 -1.30295,0.16141 -1.51313,2.02492 -1.1275,5.1376 0.64557,5.21193 -3.30449,10.11117 -8.20956,11.45377 6.11585,0.12441 11.09701,3.5498 11.79645,9.19606 1.02223,8.25224 -1.41032,15.31545 -18.20425,17.39578 l -23.52614,2.91425 m 17.79995,-11.75979 3.61937,-0.44834 c 4.19853,-0.52008 6.31835,-2.98763 5.78929,-7.25852 -0.47521,-3.83656 -3.47712,-5.52269 -7.67555,-5.00262 l -3.25748,0.40352 1.52437,12.30596"
           style="font-size:72.94132233px;font-style:normal;font-variant:normal;font-weight:normal;font-stretch:normal;text-indent:0;text-align:start;text-decoration:none;line-height:normal;letter-spacing:normal;word-spacing:normal;text-transform:none;direction:ltr;block-progression:tb;writing-mode:lr-tb;text-anchor:start;color:#000000;fill:#ffe400;fill-opacity:1;fill-rule:nonzero;stroke:none;stroke-width:1.25;marker:none;visibility:visible;font-family:ChunkFive;-inkscape-font-specification:ChunkFive"
           id="path3542"
           inkscape:connector-curvature="0" /><path
           d="m 343.29064,283.63358 -0.62109,-9.60821 4.58581,-0.29638 -2.04183,-31.59062 -4.58571,0.29638 -0.62566,-9.68099 24.16605,-1.56191 0.62576,9.681 -4.51299,0.29168 2.04174,31.59061 4.51298,-0.29167 0.62099,9.60821 -24.16605,1.5619"
           style="font-size:72.94132233px;font-style:normal;font-variant:normal;font-weight:normal;font-stretch:normal;text-indent:0;text-align:start;text-decoration:none;line-height:normal;letter-spacing:normal;word-spacing:normal;text-transform:none;direction:ltr;block-progression:tb;writing-mode:lr-tb;text-anchor:start;color:#000000;fill:#ffe400;fill-opacity:1;fill-rule:nonzero;stroke:none;stroke-width:1.25;marker:none;visibility:visible;font-family:ChunkFive;-inkscape-font-specification:ChunkFive"
           id="path3544"
           inkscape:connector-curvature="0" /><path
           d="m 424.26785,271.5378 0.12054,9.40865 -21.95355,0.28144 -0.12054,-9.40865 4.95958,-0.0636 -0.22253,-17.3586 -17.52597,26.99634 -20.9325,0.26836 -0.12065,-9.40866 4.23029,-0.0542 -0.41234,-32.16448 -4.30323,0.0552 -0.12054,-9.40865 22.39108,-0.28706 0.12065,9.40866 -5.61603,0.072 0.23561,18.37971 18.24228,-28.02679 15.68106,-0.20104 0.53299,41.57314 4.8138,-0.0617"
           style="font-size:72.94132233px;font-style:normal;font-variant:normal;font-weight:normal;font-stretch:normal;text-indent:0;text-align:start;text-decoration:none;line-height:normal;letter-spacing:normal;word-spacing:normal;text-transform:none;direction:ltr;block-progression:tb;writing-mode:lr-tb;text-anchor:start;color:#000000;fill:#ffe400;fill-opacity:1;fill-rule:nonzero;stroke:none;stroke-width:1.25;marker:none;visibility:visible;font-family:ChunkFive;-inkscape-font-specification:ChunkFive"
           id="path3546"
           inkscape:connector-curvature="0" /><path
           d="m 465.13395,250.37103 c -0.62263,-0.75853 -5.13972,-7.38976 -11.26051,-7.66853 -6.92216,-0.31529 -10.93374,6.00051 -11.26224,13.21422 -0.36177,7.94236 2.76756,14.58341 8.01382,14.82236 5.17351,0.23563 7.70763,-4.10298 8.14203,-8.8293 l 13.04295,0.59407 -0.94253,20.69388 -11.43999,-0.52106 -1.49007,-4.15681 c -0.69553,0.84452 -4.16034,4.77566 -11.44693,4.44378 -9.54544,-0.43476 -21.69321,-11.0644 -20.92995,-27.82352 0.74012,-16.24905 11.46555,-25.69087 26.91305,-24.98729 9.54544,0.43477 16.90451,5.58907 21.61046,11.27967 l -8.95009,8.93853"
           style="font-size:72.94132233px;font-style:normal;font-variant:normal;font-weight:normal;font-stretch:normal;text-indent:0;text-align:start;text-decoration:none;line-height:normal;letter-spacing:normal;word-spacing:normal;text-transform:none;direction:ltr;block-progression:tb;writing-mode:lr-tb;text-anchor:start;color:#000000;fill:#ffe400;fill-opacity:1;fill-rule:nonzero;stroke:none;stroke-width:1.25;marker:none;visibility:visible;font-family:ChunkFive;-inkscape-font-specification:ChunkFive"
           id="path3548"
           inkscape:connector-curvature="0" /><path
           d="m 502.77669,233.82648 c 16.39156,1.74948 24.46204,12.73391 22.71258,29.12554 -1.74174,16.3191 -11.14802,26.09846 -28.91773,24.20191 -15.01351,-1.60239 -24.30436,-13.524 -22.63229,-29.19033 1.93518,-18.13233 13.67874,-25.75499 28.83744,-24.13712 m -1.2154,11.38712 c -4.64185,-0.49543 -8.69322,5.16069 -9.70735,14.66203 -0.95981,8.99364 1.40523,15.70136 5.83717,16.10103 5.58483,0.59607 8.7292,-6.18384 9.66583,-14.95989 0.95991,-8.99364 -1.22624,-15.31548 -5.79565,-15.80317"
           style="font-size:72.94132233px;font-style:normal;font-variant:normal;font-weight:normal;font-stretch:normal;text-indent:0;text-align:start;text-decoration:none;line-height:normal;letter-spacing:normal;word-spacing:normal;text-transform:none;direction:ltr;block-progression:tb;writing-mode:lr-tb;text-anchor:start;color:#000000;fill:#ffe400;fill-opacity:1;fill-rule:nonzero;stroke:none;stroke-width:1.25;marker:none;visibility:visible;font-family:ChunkFive;-inkscape-font-specification:ChunkFive"
           id="path3550"
           inkscape:connector-curvature="0" /><path
           d="m 578.13922,289.42946 -1.78193,9.23917 -21.55801,-4.15773 1.78183,-9.23918 4.87025,0.9393 3.28754,-17.04591 -22.61663,22.90087 -20.5554,-3.96435 1.78193,-9.23917 4.15406,0.80116 6.0915,-31.58507 -4.22568,-0.81497 1.78194,-9.23917 21.98775,4.24061 -1.78183,9.23918 -5.51492,-1.06361 -3.48089,18.04861 23.52626,-23.76545 15.39862,2.96981 -7.87342,40.82424 4.72703,0.91166"
           style="font-size:72.94132233px;font-style:normal;font-variant:normal;font-weight:normal;font-stretch:normal;text-indent:0;text-align:start;text-decoration:none;line-height:normal;letter-spacing:normal;word-spacing:normal;text-transform:none;direction:ltr;block-progression:tb;writing-mode:lr-tb;text-anchor:start;color:#000000;fill:#ffe400;fill-opacity:1;fill-rule:nonzero;stroke:none;stroke-width:1.25;marker:none;visibility:visible;font-family:ChunkFive;-inkscape-font-specification:ChunkFive"
           id="path3552"
           inkscape:connector-curvature="0" /><path
           d="m 586.71391,257.19066 c 1.03765,-3.72402 5.41694,-6.66833 10.0544,-5.37611 5.26987,1.46845 7.14066,5.62432 5.96584,9.84018 -0.99849,3.58348 -5.18315,7.18781 -10.31236,5.75853 -5.12931,-1.42929 -6.70647,-6.63912 -5.70788,-10.2226"
           style="font-size:72.94132233px;font-style:normal;font-variant:normal;font-weight:normal;font-stretch:normal;text-indent:0;text-align:start;text-decoration:none;line-height:normal;letter-spacing:normal;word-spacing:normal;text-transform:none;direction:ltr;block-progression:tb;writing-mode:lr-tb;text-anchor:start;color:#000000;fill:#ffe400;fill-opacity:1;fill-rule:nonzero;stroke:none;stroke-width:1.25;marker:none;visibility:visible;font-family:ChunkFive;-inkscape-font-specification:ChunkFive"
           id="path3554"
           inkscape:connector-curvature="0" /></g></g></g></svg>